<?xml version="1.0" encoding="UTF-8"?>
<svg xmlns="http://www.w3.org/2000/svg" xmlns:xlink="http://www.w3.org/1999/xlink" width="244pt" height="110pt" viewBox="0 0 244 110" version="1.1">
<g id="surface199768">
<rect x="0" y="0" width="244" height="110" style="fill:rgb(100%,100%,100%);fill-opacity:1;stroke:none;"/>
<path style="fill:none;stroke-width:0.8;stroke-linecap:butt;stroke-linejoin:miter;stroke:rgb(12.156863%,75.294119%,14.509805%);stroke-opacity:1;stroke-miterlimit:10;" d="M 10 5.150086 L 10 7.84989 " transform="matrix(20,0,0,20,-17,-58.552494)"/>
<path style="fill:none;stroke-width:0.4;stroke-linecap:butt;stroke-linejoin:miter;stroke:rgb(12.156863%,75.294119%,14.509805%);stroke-opacity:1;stroke-miterlimit:10;" d="M 12.6 3.750086 L 12.6 6.04989 " transform="matrix(20,0,0,20,-17,-58.552494)"/>
<path style="fill:none;stroke-width:0.8;stroke-linecap:butt;stroke-linejoin:miter;stroke:rgb(12.156863%,75.294119%,14.509805%);stroke-opacity:1;stroke-miterlimit:10;" d="M 12.473437 3.478015 L 10.126562 4.922156 " transform="matrix(20,0,0,20,-17,-58.552494)"/>
<path style="fill:none;stroke-width:0.2;stroke-linecap:butt;stroke-linejoin:miter;stroke:rgb(12.156863%,75.294119%,14.509805%);stroke-opacity:1;stroke-miterlimit:10;" d="M 7.696875 3.582703 L 9.703125 4.817273 " transform="matrix(20,0,0,20,-17,-58.552494)"/>
<path style="fill:none;stroke-width:0.4;stroke-linecap:butt;stroke-linejoin:miter;stroke:rgb(12.156863%,75.294119%,14.509805%);stroke-opacity:1;stroke-miterlimit:10;" d="M 7.696875 6.582703 L 9.703125 7.817273 " transform="matrix(20,0,0,20,-17,-58.552494)"/>
<path style="fill:none;stroke-width:0.2;stroke-linecap:butt;stroke-linejoin:miter;stroke:rgb(12.156863%,75.294119%,14.509805%);stroke-opacity:1;stroke-miterlimit:10;" d="M 7.4 6.04989 L 7.4 3.750086 " transform="matrix(20,0,0,20,-17,-58.552494)"/>
<path style="fill:none;stroke-width:0.2;stroke-linecap:butt;stroke-linejoin:miter;stroke:rgb(12.156863%,75.294119%,14.509805%);stroke-opacity:1;stroke-miterlimit:10;" d="M 7.75 3.400086 L 12.25 3.400086 " transform="matrix(20,0,0,20,-17,-58.552494)"/>
<path style="fill:none;stroke-width:0.2;stroke-linecap:butt;stroke-linejoin:miter;stroke:rgb(12.156863%,75.294119%,14.509805%);stroke-opacity:1;stroke-miterlimit:10;" d="M 10.308398 5.166101 L 12.291602 6.233875 " transform="matrix(20,0,0,20,-17,-58.552494)"/>
<path style="fill-rule:evenodd;fill:rgb(100%,100%,100%);fill-opacity:1;stroke-width:0.1;stroke-linecap:butt;stroke-linejoin:miter;stroke:rgb(0%,0%,0%);stroke-opacity:1;stroke-miterlimit:10;" d="M 7.8 3.400086 C 7.8 3.620984 7.620898 3.800086 7.4 3.800086 C 7.179102 3.800086 7 3.620984 7 3.400086 C 7 3.178992 7.179102 3.000086 7.4 3.000086 C 7.620898 3.000086 7.8 3.178992 7.8 3.400086 " transform="matrix(20,0,0,20,-17,-58.552494)"/>
<path style="fill-rule:evenodd;fill:rgb(100%,100%,100%);fill-opacity:1;stroke-width:0.1;stroke-linecap:butt;stroke-linejoin:miter;stroke:rgb(0%,0%,0%);stroke-opacity:1;stroke-miterlimit:10;" d="M 7.8 6.400086 C 7.8 6.620984 7.620898 6.800086 7.4 6.800086 C 7.179102 6.800086 7 6.620984 7 6.400086 C 7 6.178992 7.179102 6.000086 7.4 6.000086 C 7.620898 6.000086 7.8 6.178992 7.8 6.400086 " transform="matrix(20,0,0,20,-17,-58.552494)"/>
<path style="fill-rule:evenodd;fill:rgb(100%,100%,100%);fill-opacity:1;stroke-width:0.1;stroke-linecap:butt;stroke-linejoin:miter;stroke:rgb(0%,0%,0%);stroke-opacity:1;stroke-miterlimit:10;" d="M 10.4 5.000086 C 10.4 5.220984 10.220898 5.400086 10 5.400086 C 9.779102 5.400086 9.6 5.220984 9.6 5.000086 C 9.6 4.778992 9.779102 4.600086 10 4.600086 C 10.220898 4.600086 10.4 4.778992 10.4 5.000086 " transform="matrix(20,0,0,20,-17,-58.552494)"/>
<path style="fill-rule:evenodd;fill:rgb(100%,100%,100%);fill-opacity:1;stroke-width:0.1;stroke-linecap:butt;stroke-linejoin:miter;stroke:rgb(0%,0%,0%);stroke-opacity:1;stroke-miterlimit:10;" d="M 10.4 8.000086 C 10.4 8.220984 10.220898 8.400086 10 8.400086 C 9.779102 8.400086 9.6 8.220984 9.6 8.000086 C 9.6 7.778992 9.779102 7.600086 10 7.600086 C 10.220898 7.600086 10.4 7.778992 10.4 8.000086 " transform="matrix(20,0,0,20,-17,-58.552494)"/>
<path style="fill-rule:evenodd;fill:rgb(100%,100%,100%);fill-opacity:1;stroke-width:0.1;stroke-linecap:butt;stroke-linejoin:miter;stroke:rgb(0%,0%,0%);stroke-opacity:1;stroke-miterlimit:10;" d="M 13 3.400086 C 13 3.620984 12.820898 3.800086 12.6 3.800086 C 12.379102 3.800086 12.2 3.620984 12.2 3.400086 C 12.2 3.178992 12.379102 3.000086 12.6 3.000086 C 12.820898 3.000086 13 3.178992 13 3.400086 " transform="matrix(20,0,0,20,-17,-58.552494)"/>
<path style="fill-rule:evenodd;fill:rgb(100%,100%,100%);fill-opacity:1;stroke-width:0.1;stroke-linecap:butt;stroke-linejoin:miter;stroke:rgb(0%,0%,0%);stroke-opacity:1;stroke-miterlimit:10;" d="M 13 6.400086 C 13 6.620984 12.820898 6.800086 12.6 6.800086 C 12.379102 6.800086 12.2 6.620984 12.2 6.400086 C 12.2 6.178992 12.379102 6.000086 12.6 6.000086 C 12.820898 6.000086 13 6.178992 13 6.400086 " transform="matrix(20,0,0,20,-17,-58.552494)"/>
<path style="fill:none;stroke-width:0.3;stroke-linecap:butt;stroke-linejoin:miter;stroke:rgb(0%,0%,0%);stroke-opacity:1;stroke-miterlimit:10;" d="M 1 5.000086 L 2.35 5.000086 " transform="matrix(20,0,0,20,-17,-58.552494)"/>
<path style="fill-rule:evenodd;fill:rgb(0%,0%,0%);fill-opacity:1;stroke-width:0.3;stroke-linecap:butt;stroke-linejoin:miter;stroke:rgb(0%,0%,0%);stroke-opacity:1;stroke-miterlimit:10;" d="M 2.35 5.250086 L 2.85 5.000086 L 2.35 4.750086 Z M 2.35 5.250086 " transform="matrix(20,0,0,20,-17,-58.552494)"/>
</g>
</svg>
