<?xml version="1.0" encoding="UTF-8"?>
<svg xmlns="http://www.w3.org/2000/svg" xmlns:xlink="http://www.w3.org/1999/xlink" width="338pt" height="140pt" viewBox="0 0 338 140" version="1.1">
<g id="surface805595">
<rect x="0" y="0" width="338" height="140" style="fill:rgb(100%,100%,100%);fill-opacity:1;stroke:none;"/>
<path style="fill:none;stroke-width:0.4;stroke-linecap:butt;stroke-linejoin:miter;stroke:rgb(12.156863%,75.294119%,14.509805%);stroke-opacity:1;stroke-miterlimit:10;" d="M 22.75 17.400195 L 27.25 17.400195 " transform="matrix(8,0,0,8,-14,-15.6)"/>
<path style="fill:none;stroke-width:0.125;stroke-linecap:butt;stroke-linejoin:miter;stroke:rgb(49.803922%,49.803922%,49.803922%);stroke-opacity:1;stroke-miterlimit:10;" d="M 25.296875 15.817187 L 27.303222 14.582812 " transform="matrix(8,0,0,8,-14,-15.6)"/>
<path style="fill:none;stroke-width:0.125;stroke-linecap:butt;stroke-linejoin:miter;stroke:rgb(49.803922%,49.803922%,49.803922%);stroke-opacity:1;stroke-miterlimit:10;" d="M 22.703613 17.224902 L 27.296386 14.575 " transform="matrix(8,0,0,8,-14,-15.6)"/>
<path style="fill:none;stroke-width:0.125;stroke-linecap:butt;stroke-linejoin:miter;stroke:rgb(49.803922%,49.803922%,49.803922%);stroke-opacity:1;stroke-miterlimit:10;" d="M 22.703613 14.575 L 27.296386 17.224902 " transform="matrix(8,0,0,8,-14,-15.6)"/>
<path style="fill:none;stroke-width:0.4;stroke-linecap:butt;stroke-linejoin:miter;stroke:rgb(12.156863%,75.294119%,14.509805%);stroke-opacity:1;stroke-miterlimit:10;" d="M 12.950195 17.400195 L 17.25 17.400195 " transform="matrix(8,0,0,8,-14,-15.6)"/>
<path style="fill:none;stroke-width:0.125;stroke-linecap:butt;stroke-linejoin:miter;stroke:rgb(49.803922%,49.803922%,49.803922%);stroke-opacity:1;stroke-miterlimit:10;" d="M 12.571777 14.704394 L 14.828125 18.695605 " transform="matrix(8,0,0,8,-14,-15.6)"/>
<path style="fill:none;stroke-width:0.125;stroke-linecap:butt;stroke-linejoin:miter;stroke:rgb(49.803922%,49.803922%,49.803922%);stroke-opacity:1;stroke-miterlimit:10;" d="M 12.874512 17.126269 L 17.296386 14.575 " transform="matrix(8,0,0,8,-14,-15.6)"/>
<path style="fill:none;stroke-width:0.125;stroke-linecap:butt;stroke-linejoin:miter;stroke:rgb(49.803922%,49.803922%,49.803922%);stroke-opacity:1;stroke-miterlimit:10;" d="M 12.703613 14.575 L 17.296386 17.224902 " transform="matrix(8,0,0,8,-14,-15.6)"/>
<path style="fill:none;stroke-width:0.125;stroke-linecap:butt;stroke-linejoin:miter;stroke:rgb(49.803922%,49.803922%,49.803922%);stroke-opacity:1;stroke-miterlimit:10;" d="M 2.874512 14.673633 L 7.296387 17.224902 " transform="matrix(8,0,0,8,-14,-15.6)"/>
<path style="fill:none;stroke-width:0.3;stroke-linecap:butt;stroke-linejoin:miter;stroke:rgb(12.156863%,75.294119%,14.509805%);stroke-opacity:1;stroke-miterlimit:10;" d="M 40.691406 4.16582 L 39.192382 4.973437 " transform="matrix(8,0,0,8,-14,-15.6)"/>
<path style="fill-rule:evenodd;fill:rgb(12.156863%,75.294119%,14.509805%);fill-opacity:1;stroke-width:0.3;stroke-linecap:butt;stroke-linejoin:miter;stroke:rgb(12.156863%,75.294119%,14.509805%);stroke-opacity:1;stroke-miterlimit:10;" d="M 39.145019 4.885058 L 39.016601 5.068164 L 39.240234 5.061328 Z M 39.145019 4.885058 " transform="matrix(8,0,0,8,-14,-15.6)"/>
<path style="fill:none;stroke-width:0.2;stroke-linecap:butt;stroke-linejoin:miter;stroke:rgb(0%,0%,0%);stroke-opacity:1;stroke-miterlimit:10;" d="M 12.952637 2.740039 L 14.703125 3.817187 " transform="matrix(8,0,0,8,-14,-15.6)"/>
<path style="fill-rule:evenodd;fill:rgb(0%,0%,0%);fill-opacity:1;stroke-width:0.2;stroke-linecap:butt;stroke-linejoin:miter;stroke:rgb(0%,0%,0%);stroke-opacity:1;stroke-miterlimit:10;" d="M 12.978515 2.697559 L 12.867187 2.687793 L 12.926269 2.782519 Z M 12.978515 2.697559 " transform="matrix(8,0,0,8,-14,-15.6)"/>
<path style="fill:none;stroke-width:0.2;stroke-linecap:butt;stroke-linejoin:miter;stroke:rgb(0%,0%,0%);stroke-opacity:1;stroke-miterlimit:10;" d="M 4.691406 4.16582 L 2.972656 5.091601 " transform="matrix(8,0,0,8,-14,-15.6)"/>
<path style="fill-rule:evenodd;fill:rgb(0%,0%,0%);fill-opacity:1;stroke-width:0.2;stroke-linecap:butt;stroke-linejoin:miter;stroke:rgb(0%,0%,0%);stroke-opacity:1;stroke-miterlimit:10;" d="M 2.94873 5.047656 L 2.884277 5.138965 L 2.996094 5.135547 Z M 2.94873 5.047656 " transform="matrix(8,0,0,8,-14,-15.6)"/>
<path style="fill:none;stroke-width:0.2;stroke-linecap:butt;stroke-linejoin:miter;stroke:rgb(0%,0%,0%);stroke-opacity:1;stroke-miterlimit:10;" d="M 27.047363 2.740039 L 24.956543 4.02666 " transform="matrix(8,0,0,8,-14,-15.6)"/>
<path style="fill-rule:evenodd;fill:rgb(0%,0%,0%);fill-opacity:1;stroke-width:0.2;stroke-linecap:butt;stroke-linejoin:miter;stroke:rgb(0%,0%,0%);stroke-opacity:1;stroke-miterlimit:10;" d="M 27.07373 2.782519 L 27.132812 2.687793 L 27.021484 2.697559 Z M 27.07373 2.782519 " transform="matrix(8,0,0,8,-14,-15.6)"/>
<path style="fill:none;stroke-width:0.125;stroke-linecap:butt;stroke-linejoin:miter;stroke:rgb(49.803922%,49.803922%,49.803922%);stroke-opacity:1;stroke-miterlimit:10;" d="M 24.703125 18.817187 L 22.696777 17.582812 " transform="matrix(8,0,0,8,-14,-15.6)"/>
<path style="fill:none;stroke-width:0.125;stroke-linecap:butt;stroke-linejoin:miter;stroke:rgb(49.803922%,49.803922%,49.803922%);stroke-opacity:1;stroke-miterlimit:10;" d="M 25 16.349902 L 25 18.649707 " transform="matrix(8,0,0,8,-14,-15.6)"/>
<path style="fill:none;stroke-width:0.125;stroke-linecap:butt;stroke-linejoin:miter;stroke:rgb(49.803922%,49.803922%,49.803922%);stroke-opacity:1;stroke-miterlimit:10;" d="M 27.600097 14.750293 L 27.600097 17.050097 " transform="matrix(8,0,0,8,-14,-15.6)"/>
<path style="fill:none;stroke-width:0.4;stroke-linecap:butt;stroke-linejoin:miter;stroke:rgb(12.156863%,75.294119%,14.509805%);stroke-opacity:1;stroke-miterlimit:10;" d="M 24.703125 15.817187 L 22.696777 14.582812 " transform="matrix(8,0,0,8,-14,-15.6)"/>
<path style="fill:none;stroke-width:0.4;stroke-linecap:butt;stroke-linejoin:miter;stroke:rgb(12.156863%,75.294119%,14.509805%);stroke-opacity:1;stroke-miterlimit:10;" d="M 40.703124 15.817187 L 38.696777 14.582812 " transform="matrix(8,0,0,8,-14,-15.6)"/>
<path style="fill-rule:evenodd;fill:rgb(100%,100%,100%);fill-opacity:1;stroke-width:0.125;stroke-linecap:butt;stroke-linejoin:miter;stroke:rgb(0%,0%,0%);stroke-opacity:1;stroke-miterlimit:10;" d="M 2.799805 2.400195 C 2.799805 2.933398 2 2.933398 2 2.400195 C 2 1.866504 2.799805 1.866504 2.799805 2.400195 " transform="matrix(8,0,0,8,-14,-15.6)"/>
<path style="fill-rule:evenodd;fill:rgb(100%,100%,100%);fill-opacity:1;stroke-width:0.125;stroke-linecap:butt;stroke-linejoin:miter;stroke:rgb(0%,0%,0%);stroke-opacity:1;stroke-miterlimit:10;" d="M 2.799805 5.400195 C 2.799805 5.933398 2 5.933398 2 5.400195 C 2 4.866504 2.799805 4.866504 2.799805 5.400195 " transform="matrix(8,0,0,8,-14,-15.6)"/>
<path style="fill-rule:evenodd;fill:rgb(100%,100%,100%);fill-opacity:1;stroke-width:0.125;stroke-linecap:butt;stroke-linejoin:miter;stroke:rgb(0%,0%,0%);stroke-opacity:1;stroke-miterlimit:10;" d="M 5.399902 6.999805 C 5.399902 7.533496 4.600098 7.533496 4.600098 6.999805 C 4.600098 6.466601 5.399902 6.466601 5.399902 6.999805 " transform="matrix(8,0,0,8,-14,-15.6)"/>
<path style="fill-rule:evenodd;fill:rgb(100%,100%,100%);fill-opacity:1;stroke-width:0.125;stroke-linecap:butt;stroke-linejoin:miter;stroke:rgb(0%,0%,0%);stroke-opacity:1;stroke-miterlimit:10;" d="M 8 2.400195 C 8 2.933398 7.200195 2.933398 7.200195 2.400195 C 7.200195 1.866504 8 1.866504 8 2.400195 " transform="matrix(8,0,0,8,-14,-15.6)"/>
<path style="fill-rule:evenodd;fill:rgb(100%,100%,100%);fill-opacity:1;stroke-width:0.125;stroke-linecap:butt;stroke-linejoin:miter;stroke:rgb(0%,0%,0%);stroke-opacity:1;stroke-miterlimit:10;" d="M 8 5.400195 C 8 5.933398 7.200195 5.933398 7.200195 5.400195 C 7.200195 4.866504 8 4.866504 8 5.400195 " transform="matrix(8,0,0,8,-14,-15.6)"/>
<path style="fill-rule:evenodd;fill:rgb(100%,100%,100%);fill-opacity:1;stroke-width:0.125;stroke-linecap:butt;stroke-linejoin:miter;stroke:rgb(0%,0%,0%);stroke-opacity:1;stroke-miterlimit:10;" d="M 12.799805 2.400195 C 12.799805 2.933398 12 2.933398 12 2.400195 C 12 1.866504 12.799805 1.866504 12.799805 2.400195 " transform="matrix(8,0,0,8,-14,-15.6)"/>
<path style="fill-rule:evenodd;fill:rgb(100%,100%,100%);fill-opacity:1;stroke-width:0.125;stroke-linecap:butt;stroke-linejoin:miter;stroke:rgb(0%,0%,0%);stroke-opacity:1;stroke-miterlimit:10;" d="M 12.799805 5.400195 C 12.799805 5.933398 12 5.933398 12 5.400195 C 12 4.866504 12.799805 4.866504 12.799805 5.400195 " transform="matrix(8,0,0,8,-14,-15.6)"/>
<path style="fill-rule:evenodd;fill:rgb(100%,100%,100%);fill-opacity:1;stroke-width:0.125;stroke-linecap:butt;stroke-linejoin:miter;stroke:rgb(0%,0%,0%);stroke-opacity:1;stroke-miterlimit:10;" d="M 15.399902 6.999805 C 15.399902 7.533496 14.600097 7.533496 14.600097 6.999805 C 14.600097 6.466601 15.399902 6.466601 15.399902 6.999805 " transform="matrix(8,0,0,8,-14,-15.6)"/>
<path style="fill-rule:evenodd;fill:rgb(100%,100%,100%);fill-opacity:1;stroke-width:0.125;stroke-linecap:butt;stroke-linejoin:miter;stroke:rgb(0%,0%,0%);stroke-opacity:1;stroke-miterlimit:10;" d="M 18 2.400195 C 18 2.933398 17.200195 2.933398 17.200195 2.400195 C 17.200195 1.866504 18 1.866504 18 2.400195 " transform="matrix(8,0,0,8,-14,-15.6)"/>
<path style="fill-rule:evenodd;fill:rgb(100%,100%,100%);fill-opacity:1;stroke-width:0.125;stroke-linecap:butt;stroke-linejoin:miter;stroke:rgb(0%,0%,0%);stroke-opacity:1;stroke-miterlimit:10;" d="M 18 5.400195 C 18 5.933398 17.200195 5.933398 17.200195 5.400195 C 17.200195 4.866504 18 4.866504 18 5.400195 " transform="matrix(8,0,0,8,-14,-15.6)"/>
<path style="fill:none;stroke-width:0.125;stroke-linecap:butt;stroke-linejoin:miter;stroke:rgb(49.803922%,49.803922%,49.803922%);stroke-opacity:1;stroke-miterlimit:10;" d="M 14.691406 4.16582 L 12.928711 5.115527 " transform="matrix(8,0,0,8,-14,-15.6)"/>
<path style="fill-rule:evenodd;fill:rgb(49.803922%,49.803922%,49.803922%);fill-opacity:1;stroke-width:0.125;stroke-linecap:butt;stroke-linejoin:miter;stroke:rgb(49.803922%,49.803922%,49.803922%);stroke-opacity:1;stroke-miterlimit:10;" d="M 12.904785 5.071582 L 12.840332 5.162891 L 12.952148 5.159473 Z M 12.904785 5.071582 " transform="matrix(8,0,0,8,-14,-15.6)"/>
<path style="fill-rule:evenodd;fill:rgb(100%,100%,100%);fill-opacity:1;stroke-width:0.125;stroke-linecap:butt;stroke-linejoin:miter;stroke:rgb(0%,0%,0%);stroke-opacity:1;stroke-miterlimit:10;" d="M 22.799804 2.400195 C 22.799804 2.933398 22 2.933398 22 2.400195 C 22 1.866504 22.799804 1.866504 22.799804 2.400195 " transform="matrix(8,0,0,8,-14,-15.6)"/>
<path style="fill-rule:evenodd;fill:rgb(100%,100%,100%);fill-opacity:1;stroke-width:0.125;stroke-linecap:butt;stroke-linejoin:miter;stroke:rgb(0%,0%,0%);stroke-opacity:1;stroke-miterlimit:10;" d="M 22.799804 5.400195 C 22.799804 5.933398 22 5.933398 22 5.400195 C 22 4.866504 22.799804 4.866504 22.799804 5.400195 " transform="matrix(8,0,0,8,-14,-15.6)"/>
<path style="fill-rule:evenodd;fill:rgb(100%,100%,100%);fill-opacity:1;stroke-width:0.125;stroke-linecap:butt;stroke-linejoin:miter;stroke:rgb(0%,0%,0%);stroke-opacity:1;stroke-miterlimit:10;" d="M 25.399902 6.999805 C 25.399902 7.533496 24.600097 7.533496 24.600097 6.999805 C 24.600097 6.466601 25.399902 6.466601 25.399902 6.999805 " transform="matrix(8,0,0,8,-14,-15.6)"/>
<path style="fill-rule:evenodd;fill:rgb(100%,100%,100%);fill-opacity:1;stroke-width:0.125;stroke-linecap:butt;stroke-linejoin:miter;stroke:rgb(0%,0%,0%);stroke-opacity:1;stroke-miterlimit:10;" d="M 28 2.400195 C 28 2.933398 27.200195 2.933398 27.200195 2.400195 C 27.200195 1.866504 28 1.866504 28 2.400195 " transform="matrix(8,0,0,8,-14,-15.6)"/>
<path style="fill-rule:evenodd;fill:rgb(100%,100%,100%);fill-opacity:1;stroke-width:0.125;stroke-linecap:butt;stroke-linejoin:miter;stroke:rgb(0%,0%,0%);stroke-opacity:1;stroke-miterlimit:10;" d="M 28 5.400195 C 28 5.933398 27.200195 5.933398 27.200195 5.400195 C 27.200195 4.866504 28 4.866504 28 5.400195 " transform="matrix(8,0,0,8,-14,-15.6)"/>
<path style="fill-rule:evenodd;fill:rgb(100%,100%,100%);fill-opacity:1;stroke-width:0.125;stroke-linecap:butt;stroke-linejoin:miter;stroke:rgb(0%,0%,0%);stroke-opacity:1;stroke-miterlimit:10;" d="M 38.799804 2.400195 C 38.799804 2.933398 37.999999 2.933398 37.999999 2.400195 C 37.999999 1.866504 38.799804 1.866504 38.799804 2.400195 " transform="matrix(8,0,0,8,-14,-15.6)"/>
<path style="fill-rule:evenodd;fill:rgb(100%,100%,100%);fill-opacity:1;stroke-width:0.125;stroke-linecap:butt;stroke-linejoin:miter;stroke:rgb(0%,0%,0%);stroke-opacity:1;stroke-miterlimit:10;" d="M 38.799804 5.400195 C 38.799804 5.933398 37.999999 5.933398 37.999999 5.400195 C 37.999999 4.866504 38.799804 4.866504 38.799804 5.400195 " transform="matrix(8,0,0,8,-14,-15.6)"/>
<path style="fill-rule:evenodd;fill:rgb(100%,100%,100%);fill-opacity:1;stroke-width:0.125;stroke-linecap:butt;stroke-linejoin:miter;stroke:rgb(0%,0%,0%);stroke-opacity:1;stroke-miterlimit:10;" d="M 41.399902 6.999805 C 41.399902 7.533496 40.600097 7.533496 40.600097 6.999805 C 40.600097 6.466601 41.399902 6.466601 41.399902 6.999805 " transform="matrix(8,0,0,8,-14,-15.6)"/>
<path style="fill-rule:evenodd;fill:rgb(100%,100%,100%);fill-opacity:1;stroke-width:0.125;stroke-linecap:butt;stroke-linejoin:miter;stroke:rgb(0%,0%,0%);stroke-opacity:1;stroke-miterlimit:10;" d="M 43.999999 2.400195 C 43.999999 2.933398 43.200195 2.933398 43.200195 2.400195 C 43.200195 1.866504 43.999999 1.866504 43.999999 2.400195 " transform="matrix(8,0,0,8,-14,-15.6)"/>
<path style="fill-rule:evenodd;fill:rgb(100%,100%,100%);fill-opacity:1;stroke-width:0.125;stroke-linecap:butt;stroke-linejoin:miter;stroke:rgb(0%,0%,0%);stroke-opacity:1;stroke-miterlimit:10;" d="M 43.999999 5.400195 C 43.999999 5.933398 43.200195 5.933398 43.200195 5.400195 C 43.200195 4.866504 43.999999 4.866504 43.999999 5.400195 " transform="matrix(8,0,0,8,-14,-15.6)"/>
<path style="fill:none;stroke-width:0.3;stroke-linecap:butt;stroke-linejoin:miter;stroke:rgb(0%,0%,0%);stroke-opacity:1;stroke-miterlimit:10;" d="M 32 15.999804 L 33.350097 15.999804 " transform="matrix(8,0,0,8,-14,-15.6)"/>
<path style="fill-rule:evenodd;fill:rgb(0%,0%,0%);fill-opacity:1;stroke-width:0.3;stroke-linecap:butt;stroke-linejoin:miter;stroke:rgb(0%,0%,0%);stroke-opacity:1;stroke-miterlimit:10;" d="M 33.350097 16.249804 L 33.850097 15.999804 L 33.350097 15.749804 Z M 33.350097 16.249804 " transform="matrix(8,0,0,8,-14,-15.6)"/>
<path style="fill:none;stroke-width:0.3;stroke-linecap:butt;stroke-linejoin:miter;stroke:rgb(0%,0%,0%);stroke-opacity:1;stroke-miterlimit:10;" d="M 32 3.999805 L 33.350097 3.999805 " transform="matrix(8,0,0,8,-14,-15.6)"/>
<path style="fill-rule:evenodd;fill:rgb(0%,0%,0%);fill-opacity:1;stroke-width:0.3;stroke-linecap:butt;stroke-linejoin:miter;stroke:rgb(0%,0%,0%);stroke-opacity:1;stroke-miterlimit:10;" d="M 33.350097 4.249805 L 33.850097 3.999805 L 33.350097 3.749805 Z M 33.350097 4.249805 " transform="matrix(8,0,0,8,-14,-15.6)"/>
<path style="fill:none;stroke-width:0.125;stroke-linecap:butt;stroke-linejoin:miter;stroke:rgb(49.803922%,49.803922%,49.803922%);stroke-opacity:1;stroke-miterlimit:10;" d="M 24.617675 3.764941 L 22.909668 2.713672 " transform="matrix(8,0,0,8,-14,-15.6)"/>
<path style="fill-rule:evenodd;fill:rgb(49.803922%,49.803922%,49.803922%);fill-opacity:1;stroke-width:0.125;stroke-linecap:butt;stroke-linejoin:miter;stroke:rgb(49.803922%,49.803922%,49.803922%);stroke-opacity:1;stroke-miterlimit:10;" d="M 22.936035 2.671191 L 22.824707 2.661426 L 22.883789 2.756152 Z M 22.936035 2.671191 " transform="matrix(8,0,0,8,-14,-15.6)"/>
<path style="fill:none;stroke-width:0.125;stroke-linecap:butt;stroke-linejoin:miter;stroke:rgb(49.803922%,49.803922%,49.803922%);stroke-opacity:1;stroke-miterlimit:10;" d="M 24.603515 4.213672 L 22.928711 5.115527 " transform="matrix(8,0,0,8,-14,-15.6)"/>
<path style="fill-rule:evenodd;fill:rgb(49.803922%,49.803922%,49.803922%);fill-opacity:1;stroke-width:0.125;stroke-linecap:butt;stroke-linejoin:miter;stroke:rgb(49.803922%,49.803922%,49.803922%);stroke-opacity:1;stroke-miterlimit:10;" d="M 22.904785 5.071582 L 22.840332 5.162891 L 22.952148 5.159473 Z M 22.904785 5.071582 " transform="matrix(8,0,0,8,-14,-15.6)"/>
<path style="fill:none;stroke-width:0.125;stroke-linecap:butt;stroke-linejoin:miter;stroke:rgb(49.803922%,49.803922%,49.803922%);stroke-opacity:1;stroke-miterlimit:10;" d="M 41.382324 3.764941 L 43.004882 2.766406 " transform="matrix(8,0,0,8,-14,-15.6)"/>
<path style="fill-rule:evenodd;fill:rgb(49.803922%,49.803922%,49.803922%);fill-opacity:1;stroke-width:0.125;stroke-linecap:butt;stroke-linejoin:miter;stroke:rgb(49.803922%,49.803922%,49.803922%);stroke-opacity:1;stroke-miterlimit:10;" d="M 43.057128 2.851367 L 43.175292 2.661426 L 42.952636 2.680957 Z M 43.057128 2.851367 " transform="matrix(8,0,0,8,-14,-15.6)"/>
<path style="fill:none;stroke-width:0.125;stroke-linecap:butt;stroke-linejoin:miter;stroke:rgb(49.803922%,49.803922%,49.803922%);stroke-opacity:1;stroke-miterlimit:10;" d="M 41.396484 4.213672 L 42.983398 5.068164 " transform="matrix(8,0,0,8,-14,-15.6)"/>
<path style="fill-rule:evenodd;fill:rgb(49.803922%,49.803922%,49.803922%);fill-opacity:1;stroke-width:0.125;stroke-linecap:butt;stroke-linejoin:miter;stroke:rgb(49.803922%,49.803922%,49.803922%);stroke-opacity:1;stroke-miterlimit:10;" d="M 42.936035 5.156055 L 43.159667 5.162891 L 43.030761 4.979785 Z M 42.936035 5.156055 " transform="matrix(8,0,0,8,-14,-15.6)"/>
<path style="fill:none;stroke-width:0.125;stroke-linecap:butt;stroke-linejoin:miter;stroke:rgb(49.803922%,49.803922%,49.803922%);stroke-opacity:1;stroke-miterlimit:10;" d="M 40.617675 3.764941 L 38.995117 2.766406 " transform="matrix(8,0,0,8,-14,-15.6)"/>
<path style="fill-rule:evenodd;fill:rgb(49.803922%,49.803922%,49.803922%);fill-opacity:1;stroke-width:0.125;stroke-linecap:butt;stroke-linejoin:miter;stroke:rgb(49.803922%,49.803922%,49.803922%);stroke-opacity:1;stroke-miterlimit:10;" d="M 39.047363 2.680957 L 38.824706 2.661426 L 38.942871 2.851367 Z M 39.047363 2.680957 " transform="matrix(8,0,0,8,-14,-15.6)"/>
<path style="fill:none;stroke-width:0.125;stroke-linecap:butt;stroke-linejoin:miter;stroke:rgb(49.803922%,49.803922%,49.803922%);stroke-opacity:1;stroke-miterlimit:10;" d="M 40.999999 4.45 L 40.999999 6.399707 " transform="matrix(8,0,0,8,-14,-15.6)"/>
<path style="fill-rule:evenodd;fill:rgb(49.803922%,49.803922%,49.803922%);fill-opacity:1;stroke-width:0.125;stroke-linecap:butt;stroke-linejoin:miter;stroke:rgb(49.803922%,49.803922%,49.803922%);stroke-opacity:1;stroke-miterlimit:10;" d="M 40.950195 6.399707 L 40.999999 6.499805 L 41.049804 6.399707 Z M 40.950195 6.399707 " transform="matrix(8,0,0,8,-14,-15.6)"/>
<path style="fill-rule:evenodd;fill:rgb(12.156863%,75.294119%,14.509805%);fill-opacity:1;stroke-width:0.125;stroke-linecap:butt;stroke-linejoin:miter;stroke:rgb(0%,0%,0%);stroke-opacity:1;stroke-miterlimit:10;" d="M 41.399902 3.999805 C 41.399902 4.533496 40.600097 4.533496 40.600097 3.999805 C 40.600097 3.466601 41.399902 3.466601 41.399902 3.999805 " transform="matrix(8,0,0,8,-14,-15.6)"/>
<path style="fill-rule:evenodd;fill:rgb(12.156863%,75.294119%,14.509805%);fill-opacity:1;stroke-width:0.125;stroke-linecap:butt;stroke-linejoin:miter;stroke:rgb(0%,0%,0%);stroke-opacity:1;stroke-miterlimit:10;" d="M 15.399902 3.999805 C 15.399902 4.533496 14.600097 4.533496 14.600097 3.999805 C 14.600097 3.466601 15.399902 3.466601 15.399902 3.999805 " transform="matrix(8,0,0,8,-14,-15.6)"/>
<path style="fill-rule:evenodd;fill:rgb(12.156863%,75.294119%,14.509805%);fill-opacity:1;stroke-width:0.125;stroke-linecap:butt;stroke-linejoin:miter;stroke:rgb(0%,0%,0%);stroke-opacity:1;stroke-miterlimit:10;" d="M 5.399902 3.999805 C 5.399902 4.533496 4.600098 4.533496 4.600098 3.999805 C 4.600098 3.466601 5.399902 3.466601 5.399902 3.999805 " transform="matrix(8,0,0,8,-14,-15.6)"/>
<path style="fill-rule:evenodd;fill:rgb(12.156863%,75.294119%,14.509805%);fill-opacity:1;stroke-width:0.125;stroke-linecap:butt;stroke-linejoin:miter;stroke:rgb(0%,0%,0%);stroke-opacity:1;stroke-miterlimit:10;" d="M 25.399902 3.999805 C 25.399902 4.533496 24.600097 4.533496 24.600097 3.999805 C 24.600097 3.466601 25.399902 3.466601 25.399902 3.999805 " transform="matrix(8,0,0,8,-14,-15.6)"/>
<path style="fill:none;stroke-width:0.125;stroke-linecap:butt;stroke-linejoin:miter;stroke:rgb(49.803922%,49.803922%,49.803922%);stroke-opacity:1;stroke-miterlimit:10;" d="M 2.399902 14.947558 L 2.399902 17.050097 " transform="matrix(8,0,0,8,-14,-15.6)"/>
<path style="fill:none;stroke-width:0.4;stroke-linecap:butt;stroke-linejoin:miter;stroke:rgb(12.156863%,75.294119%,14.509805%);stroke-opacity:1;stroke-miterlimit:10;" d="M 2.868652 14.688281 L 4.703125 15.817187 " transform="matrix(8,0,0,8,-14,-15.6)"/>
<path style="fill:none;stroke-width:0.125;stroke-linecap:butt;stroke-linejoin:miter;stroke:rgb(49.803922%,49.803922%,49.803922%);stroke-opacity:1;stroke-miterlimit:10;" d="M 2.950195 14.400195 L 7.25 14.400195 " transform="matrix(8,0,0,8,-14,-15.6)"/>
<path style="fill:none;stroke-width:0.125;stroke-linecap:butt;stroke-linejoin:miter;stroke:rgb(49.803922%,49.803922%,49.803922%);stroke-opacity:1;stroke-miterlimit:10;" d="M 2.667969 14.874316 L 4.828125 18.695605 " transform="matrix(8,0,0,8,-14,-15.6)"/>
<path style="fill-rule:evenodd;fill:rgb(100%,100%,100%);fill-opacity:1;stroke-width:0.125;stroke-linecap:butt;stroke-linejoin:miter;stroke:rgb(0%,0%,0%);stroke-opacity:1;stroke-miterlimit:10;" d="M 5.399902 15.999804 C 5.399902 16.533496 4.600098 16.533496 4.600098 15.999804 C 4.600098 15.466601 5.399902 15.466601 5.399902 15.999804 " transform="matrix(8,0,0,8,-14,-15.6)"/>
<path style="fill:none;stroke-width:0.4;stroke-linecap:butt;stroke-linejoin:miter;stroke:rgb(12.156863%,75.294119%,14.509805%);stroke-opacity:1;stroke-miterlimit:10;" d="M 12.708496 14.566211 L 14.691406 15.634082 " transform="matrix(8,0,0,8,-14,-15.6)"/>
<path style="fill:none;stroke-width:0.125;stroke-linecap:butt;stroke-linejoin:miter;stroke:rgb(49.803922%,49.803922%,49.803922%);stroke-opacity:1;stroke-miterlimit:10;" d="M 12.399902 14.750293 L 12.399902 16.852343 " transform="matrix(8,0,0,8,-14,-15.6)"/>
<path style="fill:none;stroke-width:0.125;stroke-linecap:butt;stroke-linejoin:miter;stroke:rgb(49.803922%,49.803922%,49.803922%);stroke-opacity:1;stroke-miterlimit:10;" d="M 12.75 14.400195 L 17.25 14.400195 " transform="matrix(8,0,0,8,-14,-15.6)"/>
<path style="fill:none;stroke-width:0.125;stroke-linecap:butt;stroke-linejoin:miter;stroke:rgb(49.803922%,49.803922%,49.803922%);stroke-opacity:1;stroke-miterlimit:10;" d="M 12.868652 17.111621 L 14.703125 15.982715 " transform="matrix(8,0,0,8,-14,-15.6)"/>
<path style="fill:none;stroke-width:0.125;stroke-linecap:butt;stroke-linejoin:miter;stroke:rgb(49.803922%,49.803922%,49.803922%);stroke-opacity:1;stroke-miterlimit:10;" d="M 12.868652 17.688281 L 14.703125 18.817187 " transform="matrix(8,0,0,8,-14,-15.6)"/>
<path style="fill-rule:evenodd;fill:rgb(49.803922%,49.803922%,49.803922%);fill-opacity:1;stroke-width:0.125;stroke-linecap:butt;stroke-linejoin:miter;stroke:rgb(0%,0%,0%);stroke-opacity:1;stroke-miterlimit:10;" d="M 3 14.400195 C 3 15.2 1.799805 15.2 1.799805 14.400195 C 1.799805 13.599902 3 13.599902 3 14.400195 " transform="matrix(8,0,0,8,-14,-15.6)"/>
<path style="fill-rule:evenodd;fill:rgb(100%,100%,100%);fill-opacity:1;stroke-width:0.125;stroke-linecap:butt;stroke-linejoin:miter;stroke:rgb(0%,0%,0%);stroke-opacity:1;stroke-miterlimit:10;" d="M 2.799805 17.400195 C 2.799805 17.933398 2 17.933398 2 17.400195 C 2 16.866504 2.799805 16.866504 2.799805 17.400195 " transform="matrix(8,0,0,8,-14,-15.6)"/>
<path style="fill-rule:evenodd;fill:rgb(100%,100%,100%);fill-opacity:1;stroke-width:0.125;stroke-linecap:butt;stroke-linejoin:miter;stroke:rgb(0%,0%,0%);stroke-opacity:1;stroke-miterlimit:10;" d="M 5.399902 18.999804 C 5.399902 19.533496 4.600098 19.533496 4.600098 18.999804 C 4.600098 18.466601 5.399902 18.466601 5.399902 18.999804 " transform="matrix(8,0,0,8,-14,-15.6)"/>
<path style="fill-rule:evenodd;fill:rgb(100%,100%,100%);fill-opacity:1;stroke-width:0.125;stroke-linecap:butt;stroke-linejoin:miter;stroke:rgb(0%,0%,0%);stroke-opacity:1;stroke-miterlimit:10;" d="M 8 17.400195 C 8 17.933398 7.200195 17.933398 7.200195 17.400195 C 7.200195 16.866504 8 16.866504 8 17.400195 " transform="matrix(8,0,0,8,-14,-15.6)"/>
<path style="fill-rule:evenodd;fill:rgb(100%,100%,100%);fill-opacity:1;stroke-width:0.125;stroke-linecap:butt;stroke-linejoin:miter;stroke:rgb(0%,0%,0%);stroke-opacity:1;stroke-miterlimit:10;" d="M 8 14.400195 C 8 14.933398 7.200195 14.933398 7.200195 14.400195 C 7.200195 13.866504 8 13.866504 8 14.400195 " transform="matrix(8,0,0,8,-14,-15.6)"/>
<path style="fill:none;stroke-width:0.125;stroke-linecap:butt;stroke-linejoin:miter;stroke:rgb(49.803922%,49.803922%,49.803922%);stroke-opacity:1;stroke-miterlimit:10;" d="M 22.399902 14.750293 L 22.399902 17.050097 " transform="matrix(8,0,0,8,-14,-15.6)"/>
<path style="fill-rule:evenodd;fill:rgb(100%,100%,100%);fill-opacity:1;stroke-width:0.125;stroke-linecap:butt;stroke-linejoin:miter;stroke:rgb(0%,0%,0%);stroke-opacity:1;stroke-miterlimit:10;" d="M 12.799805 14.400195 C 12.799805 14.933398 12 14.933398 12 14.400195 C 12 13.866504 12.799805 13.866504 12.799805 14.400195 " transform="matrix(8,0,0,8,-14,-15.6)"/>
<path style="fill-rule:evenodd;fill:rgb(49.803922%,49.803922%,49.803922%);fill-opacity:1;stroke-width:0.125;stroke-linecap:butt;stroke-linejoin:miter;stroke:rgb(0%,0%,0%);stroke-opacity:1;stroke-miterlimit:10;" d="M 13 17.400195 C 13 18.2 11.799805 18.2 11.799805 17.400195 C 11.799805 16.599902 13 16.599902 13 17.400195 " transform="matrix(8,0,0,8,-14,-15.6)"/>
<path style="fill-rule:evenodd;fill:rgb(100%,100%,100%);fill-opacity:1;stroke-width:0.125;stroke-linecap:butt;stroke-linejoin:miter;stroke:rgb(0%,0%,0%);stroke-opacity:1;stroke-miterlimit:10;" d="M 15.399902 18.999804 C 15.399902 19.533496 14.600097 19.533496 14.600097 18.999804 C 14.600097 18.466601 15.399902 18.466601 15.399902 18.999804 " transform="matrix(8,0,0,8,-14,-15.6)"/>
<path style="fill-rule:evenodd;fill:rgb(100%,100%,100%);fill-opacity:1;stroke-width:0.125;stroke-linecap:butt;stroke-linejoin:miter;stroke:rgb(0%,0%,0%);stroke-opacity:1;stroke-miterlimit:10;" d="M 18 17.400195 C 18 17.933398 17.200195 17.933398 17.200195 17.400195 C 17.200195 16.866504 18 16.866504 18 17.400195 " transform="matrix(8,0,0,8,-14,-15.6)"/>
<path style="fill-rule:evenodd;fill:rgb(100%,100%,100%);fill-opacity:1;stroke-width:0.125;stroke-linecap:butt;stroke-linejoin:miter;stroke:rgb(0%,0%,0%);stroke-opacity:1;stroke-miterlimit:10;" d="M 18 14.400195 C 18 14.933398 17.200195 14.933398 17.200195 14.400195 C 17.200195 13.866504 18 13.866504 18 14.400195 " transform="matrix(8,0,0,8,-14,-15.6)"/>
<path style="fill-rule:evenodd;fill:rgb(100%,100%,100%);fill-opacity:1;stroke-width:0.125;stroke-linecap:butt;stroke-linejoin:miter;stroke:rgb(0%,0%,0%);stroke-opacity:1;stroke-miterlimit:10;" d="M 15.399902 15.800097 C 15.399902 16.3333 14.600097 16.3333 14.600097 15.800097 C 14.600097 15.266894 15.399902 15.266894 15.399902 15.800097 " transform="matrix(8,0,0,8,-14,-15.6)"/>
<path style="fill:none;stroke-width:0.125;stroke-linecap:butt;stroke-linejoin:miter;stroke:rgb(49.803922%,49.803922%,49.803922%);stroke-opacity:1;stroke-miterlimit:10;" d="M 22.571777 14.704394 L 24.828125 18.695605 " transform="matrix(8,0,0,8,-14,-15.6)"/>
<path style="fill:none;stroke-width:0.4;stroke-linecap:butt;stroke-linejoin:miter;stroke:rgb(12.156863%,75.294119%,14.509805%);stroke-opacity:1;stroke-miterlimit:10;" d="M 22.75 14.400195 L 27.25 14.400195 " transform="matrix(8,0,0,8,-14,-15.6)"/>
<path style="fill:none;stroke-width:0.125;stroke-linecap:butt;stroke-linejoin:miter;stroke:rgb(49.803922%,49.803922%,49.803922%);stroke-opacity:1;stroke-miterlimit:10;" d="M 24.691406 16.16582 L 22.708496 17.234179 " transform="matrix(8,0,0,8,-14,-15.6)"/>
<path style="fill:none;stroke-width:0.4;stroke-linecap:butt;stroke-linejoin:miter;stroke:rgb(12.156863%,75.294119%,14.509805%);stroke-opacity:1;stroke-miterlimit:10;" d="M 38.749999 17.400195 L 43.249999 17.400195 " transform="matrix(8,0,0,8,-14,-15.6)"/>
<path style="fill:none;stroke-width:0.4;stroke-linecap:butt;stroke-linejoin:miter;stroke:rgb(12.156863%,75.294119%,14.509805%);stroke-opacity:1;stroke-miterlimit:10;" d="M 41.296874 18.817187 L 43.303222 17.582812 " transform="matrix(8,0,0,8,-14,-15.6)"/>
<path style="fill:none;stroke-width:0.4;stroke-linecap:butt;stroke-linejoin:miter;stroke:rgb(12.156863%,75.294119%,14.509805%);stroke-opacity:1;stroke-miterlimit:10;" d="M 38.749999 14.400195 L 43.249999 14.400195 " transform="matrix(8,0,0,8,-14,-15.6)"/>
<path style="fill-rule:evenodd;fill:rgb(100%,100%,100%);fill-opacity:1;stroke-width:0.125;stroke-linecap:butt;stroke-linejoin:miter;stroke:rgb(0%,0%,0%);stroke-opacity:1;stroke-miterlimit:10;" d="M 38.799804 14.400195 C 38.799804 14.933398 37.999999 14.933398 37.999999 14.400195 C 37.999999 13.866504 38.799804 13.866504 38.799804 14.400195 " transform="matrix(8,0,0,8,-14,-15.6)"/>
<path style="fill-rule:evenodd;fill:rgb(100%,100%,100%);fill-opacity:1;stroke-width:0.125;stroke-linecap:butt;stroke-linejoin:miter;stroke:rgb(0%,0%,0%);stroke-opacity:1;stroke-miterlimit:10;" d="M 41.399902 15.999804 C 41.399902 16.533496 40.600097 16.533496 40.600097 15.999804 C 40.600097 15.466601 41.399902 15.466601 41.399902 15.999804 " transform="matrix(8,0,0,8,-14,-15.6)"/>
<path style="fill-rule:evenodd;fill:rgb(100%,100%,100%);fill-opacity:1;stroke-width:0.125;stroke-linecap:butt;stroke-linejoin:miter;stroke:rgb(0%,0%,0%);stroke-opacity:1;stroke-miterlimit:10;" d="M 43.999999 14.400195 C 43.999999 14.933398 43.200195 14.933398 43.200195 14.400195 C 43.200195 13.866504 43.999999 13.866504 43.999999 14.400195 " transform="matrix(8,0,0,8,-14,-15.6)"/>
<path style="fill-rule:evenodd;fill:rgb(100%,100%,100%);fill-opacity:1;stroke-width:0.125;stroke-linecap:butt;stroke-linejoin:miter;stroke:rgb(0%,0%,0%);stroke-opacity:1;stroke-miterlimit:10;" d="M 38.799804 17.400195 C 38.799804 17.933398 37.999999 17.933398 37.999999 17.400195 C 37.999999 16.866504 38.799804 16.866504 38.799804 17.400195 " transform="matrix(8,0,0,8,-14,-15.6)"/>
<path style="fill-rule:evenodd;fill:rgb(100%,100%,100%);fill-opacity:1;stroke-width:0.125;stroke-linecap:butt;stroke-linejoin:miter;stroke:rgb(0%,0%,0%);stroke-opacity:1;stroke-miterlimit:10;" d="M 41.399902 18.999804 C 41.399902 19.533496 40.600097 19.533496 40.600097 18.999804 C 40.600097 18.466601 41.399902 18.466601 41.399902 18.999804 " transform="matrix(8,0,0,8,-14,-15.6)"/>
<path style="fill-rule:evenodd;fill:rgb(100%,100%,100%);fill-opacity:1;stroke-width:0.125;stroke-linecap:butt;stroke-linejoin:miter;stroke:rgb(0%,0%,0%);stroke-opacity:1;stroke-miterlimit:10;" d="M 43.999999 17.400195 C 43.999999 17.933398 43.200195 17.933398 43.200195 17.400195 C 43.200195 16.866504 43.999999 16.866504 43.999999 17.400195 " transform="matrix(8,0,0,8,-14,-15.6)"/>
<path style="fill:none;stroke-width:0.125;stroke-linecap:butt;stroke-linejoin:miter;stroke:rgb(49.803922%,49.803922%,49.803922%);stroke-opacity:1;stroke-miterlimit:10;" d="M 27.428222 14.704394 L 25.171875 18.695605 " transform="matrix(8,0,0,8,-14,-15.6)"/>
<path style="fill:none;stroke-width:0.4;stroke-linecap:butt;stroke-linejoin:miter;stroke:rgb(12.156863%,75.294119%,14.509805%);stroke-opacity:1;stroke-miterlimit:10;" d="M 27.303222 17.582812 L 25.296875 18.817187 " transform="matrix(8,0,0,8,-14,-15.6)"/>
<path style="fill-rule:evenodd;fill:rgb(100%,100%,100%);fill-opacity:1;stroke-width:0.125;stroke-linecap:butt;stroke-linejoin:miter;stroke:rgb(0%,0%,0%);stroke-opacity:1;stroke-miterlimit:10;" d="M 22.799804 17.400195 C 22.799804 17.933398 22 17.933398 22 17.400195 C 22 16.866504 22.799804 16.866504 22.799804 17.400195 " transform="matrix(8,0,0,8,-14,-15.6)"/>
<path style="fill-rule:evenodd;fill:rgb(100%,100%,100%);fill-opacity:1;stroke-width:0.125;stroke-linecap:butt;stroke-linejoin:miter;stroke:rgb(0%,0%,0%);stroke-opacity:1;stroke-miterlimit:10;" d="M 22.799804 14.400195 C 22.799804 14.933398 22 14.933398 22 14.400195 C 22 13.866504 22.799804 13.866504 22.799804 14.400195 " transform="matrix(8,0,0,8,-14,-15.6)"/>
<path style="fill-rule:evenodd;fill:rgb(100%,100%,100%);fill-opacity:1;stroke-width:0.125;stroke-linecap:butt;stroke-linejoin:miter;stroke:rgb(0%,0%,0%);stroke-opacity:1;stroke-miterlimit:10;" d="M 25.399902 15.999804 C 25.399902 16.533496 24.600097 16.533496 24.600097 15.999804 C 24.600097 15.466601 25.399902 15.466601 25.399902 15.999804 " transform="matrix(8,0,0,8,-14,-15.6)"/>
<path style="fill-rule:evenodd;fill:rgb(100%,100%,100%);fill-opacity:1;stroke-width:0.125;stroke-linecap:butt;stroke-linejoin:miter;stroke:rgb(0%,0%,0%);stroke-opacity:1;stroke-miterlimit:10;" d="M 28 14.400195 C 28 14.933398 27.200195 14.933398 27.200195 14.400195 C 27.200195 13.866504 28 13.866504 28 14.400195 " transform="matrix(8,0,0,8,-14,-15.6)"/>
<path style="fill-rule:evenodd;fill:rgb(100%,100%,100%);fill-opacity:1;stroke-width:0.125;stroke-linecap:butt;stroke-linejoin:miter;stroke:rgb(0%,0%,0%);stroke-opacity:1;stroke-miterlimit:10;" d="M 28 17.400195 C 28 17.933398 27.200195 17.933398 27.200195 17.400195 C 27.200195 16.866504 28 16.866504 28 17.400195 " transform="matrix(8,0,0,8,-14,-15.6)"/>
<path style="fill-rule:evenodd;fill:rgb(100%,100%,100%);fill-opacity:1;stroke-width:0.125;stroke-linecap:butt;stroke-linejoin:miter;stroke:rgb(0%,0%,0%);stroke-opacity:1;stroke-miterlimit:10;" d="M 25.399902 18.999804 C 25.399902 19.533496 24.600097 19.533496 24.600097 18.999804 C 24.600097 18.466601 25.399902 18.466601 25.399902 18.999804 " transform="matrix(8,0,0,8,-14,-15.6)"/>
</g>
</svg>
