<?xml version="1.0" encoding="UTF-8"?>
<svg xmlns="http://www.w3.org/2000/svg" xmlns:xlink="http://www.w3.org/1999/xlink" width="122pt" height="110pt" viewBox="0 0 122 110" version="1.1">
<g id="surface1403692">
<rect x="0" y="0" width="122" height="110" style="fill:rgb(100%,100%,100%);fill-opacity:1;stroke:none;"/>
<path style="fill:none;stroke-width:0.2;stroke-linecap:butt;stroke-linejoin:miter;stroke:rgb(49.803922%,49.803922%,49.803922%);stroke-opacity:1;stroke-miterlimit:10;" d="M 0.9 1.15 L 0.9 3.65 " transform="matrix(20,0,0,20,-9,-9)"/>
<path style="fill:none;stroke-width:0.4;stroke-linecap:butt;stroke-linejoin:miter;stroke:rgb(100%,0%,0%);stroke-opacity:1;stroke-miterlimit:10;" d="M 3.016211 2.760547 L 1.208398 3.733984 " transform="matrix(20,0,0,20,-9,-9)"/>
<path style="fill:none;stroke-width:0.1;stroke-linecap:butt;stroke-linejoin:miter;stroke:rgb(100%,0%,0%);stroke-opacity:1;stroke-miterlimit:10;" d="M 1.196875 1.082812 L 3.03125 2.211523 " transform="matrix(20,0,0,20,-9,-9)"/>
<path style="fill:none;stroke-width:0.2;stroke-linecap:butt;stroke-linejoin:miter;stroke:rgb(100%,0%,0%);stroke-opacity:1;stroke-miterlimit:10;" d="M 3.62793 2.421289 L 6.14375 0.873047 " transform="matrix(20,0,0,20,-9,-9)"/>
<path style="fill-rule:evenodd;fill:rgb(100%,100%,100%);fill-opacity:1;stroke-width:0.1;stroke-linecap:butt;stroke-linejoin:miter;stroke:rgb(0%,0%,0%);stroke-opacity:1;stroke-miterlimit:10;" d="M 1.3 0.9 C 1.3 1.120898 1.120898 1.3 0.9 1.3 C 0.679102 1.3 0.5 1.120898 0.5 0.9 C 0.5 0.679102 0.679102 0.5 0.9 0.5 C 1.120898 0.5 1.3 0.679102 1.3 0.9 " transform="matrix(20,0,0,20,-9,-9)"/>
<path style="fill-rule:evenodd;fill:rgb(100%,100%,100%);fill-opacity:1;stroke-width:0.1;stroke-linecap:butt;stroke-linejoin:miter;stroke:rgb(0%,0%,0%);stroke-opacity:1;stroke-miterlimit:10;" d="M 1.3 3.9 C 1.3 4.120898 1.120898 4.3 0.9 4.3 C 0.679102 4.3 0.5 4.120898 0.5 3.9 C 0.5 3.679102 0.679102 3.5 0.9 3.5 C 1.120898 3.5 1.3 3.679102 1.3 3.9 " transform="matrix(20,0,0,20,-9,-9)"/>
<path style="fill-rule:evenodd;fill:rgb(49.803922%,49.803922%,49.803922%);fill-opacity:1;stroke-width:0.1;stroke-linecap:butt;stroke-linejoin:miter;stroke:rgb(0%,0%,0%);stroke-opacity:1;stroke-miterlimit:10;" d="M 4.1 2.5 C 4.1 2.831445 3.831445 3.1 3.5 3.1 C 3.168555 3.1 2.9 2.831445 2.9 2.5 C 2.9 2.168555 3.168555 1.9 3.5 1.9 C 3.831445 1.9 4.1 2.168555 4.1 2.5 " transform="matrix(20,0,0,20,-9,-9)"/>
<path style="fill-rule:evenodd;fill:rgb(100%,100%,100%);fill-opacity:1;stroke-width:0.1;stroke-linecap:butt;stroke-linejoin:miter;stroke:rgb(0%,0%,0%);stroke-opacity:1;stroke-miterlimit:10;" d="M 3.9 5.5 C 3.9 5.720898 3.720898 5.9 3.5 5.9 C 3.279102 5.9 3.1 5.720898 3.1 5.5 C 3.1 5.279102 3.279102 5.1 3.5 5.1 C 3.720898 5.1 3.9 5.279102 3.9 5.5 " transform="matrix(20,0,0,20,-9,-9)"/>
<path style="fill-rule:evenodd;fill:rgb(100%,100%,100%);fill-opacity:1;stroke-width:0.1;stroke-linecap:butt;stroke-linejoin:miter;stroke:rgb(0%,0%,0%);stroke-opacity:1;stroke-miterlimit:10;" d="M 6.5 0.9 C 6.5 1.120898 6.320898 1.3 6.1 1.3 C 5.879102 1.3 5.7 1.120898 5.7 0.9 C 5.7 0.679102 5.879102 0.5 6.1 0.5 C 6.320898 0.5 6.5 0.679102 6.5 0.9 " transform="matrix(20,0,0,20,-9,-9)"/>
<path style="fill-rule:evenodd;fill:rgb(100%,100%,100%);fill-opacity:1;stroke-width:0.1;stroke-linecap:butt;stroke-linejoin:miter;stroke:rgb(0%,0%,0%);stroke-opacity:1;stroke-miterlimit:10;" d="M 6.5 3.9 C 6.5 4.120898 6.320898 4.3 6.1 4.3 C 5.879102 4.3 5.7 4.120898 5.7 3.9 C 5.7 3.679102 5.879102 3.5 6.1 3.5 C 6.320898 3.5 6.5 3.679102 6.5 3.9 " transform="matrix(20,0,0,20,-9,-9)"/>
<path style="fill:none;stroke-width:0.1;stroke-linecap:butt;stroke-linejoin:miter;stroke:rgb(49.803922%,49.803922%,49.803922%);stroke-opacity:1;stroke-miterlimit:10;" d="M 1.282227 4.135156 L 3.117969 5.264844 " transform="matrix(20,0,0,20,-9,-9)"/>
</g>
</svg>
