<?xml version="1.0" encoding="UTF-8"?>
<svg xmlns="http://www.w3.org/2000/svg" xmlns:xlink="http://www.w3.org/1999/xlink" width="122pt" height="110pt" viewBox="0 0 122 110" version="1.1">
<g id="surface141575">
<rect x="0" y="0" width="122" height="110" style="fill:rgb(100%,100%,100%);fill-opacity:1;stroke:none;"/>
<path style="fill:none;stroke-width:0.2;stroke-linecap:butt;stroke-linejoin:miter;stroke:rgb(12.156863%,75.294119%,14.509805%);stroke-opacity:1;stroke-miterlimit:10;" d="M 5.061875 3.417812 L 7.068125 4.652187 " transform="matrix(20,0,0,20,-86.3,-55.7)"/>
<path style="fill:none;stroke-width:0.2;stroke-linecap:butt;stroke-linejoin:miter;stroke:rgb(12.156863%,75.294119%,14.509805%);stroke-opacity:1;stroke-miterlimit:10;" d="M 5.061875 6.417812 L 7.068125 7.652187 " transform="matrix(20,0,0,20,-86.3,-55.7)"/>
<path style="fill:none;stroke-width:0.2;stroke-linecap:butt;stroke-linejoin:miter;stroke:rgb(12.156863%,75.294119%,14.509805%);stroke-opacity:1;stroke-miterlimit:10;" d="M 7.365 7.485 L 7.365 5.135 " transform="matrix(20,0,0,20,-86.3,-55.7)"/>
<path style="fill:none;stroke-width:0.2;stroke-linecap:butt;stroke-linejoin:miter;stroke:rgb(12.156863%,75.294119%,14.509805%);stroke-opacity:1;stroke-miterlimit:10;" d="M 7.661875 4.652187 L 9.668125 3.417812 " transform="matrix(20,0,0,20,-86.3,-55.7)"/>
<path style="fill:none;stroke-width:0.2;stroke-linecap:butt;stroke-linejoin:miter;stroke:rgb(12.156863%,75.294119%,14.509805%);stroke-opacity:1;stroke-miterlimit:10;" d="M 9.965 3.535 L 9.965 5.885 " transform="matrix(20,0,0,20,-86.3,-55.7)"/>
<path style="fill-rule:evenodd;fill:rgb(100%,100%,100%);fill-opacity:1;stroke-width:0.1;stroke-linecap:butt;stroke-linejoin:miter;stroke:rgb(0%,0%,0%);stroke-opacity:1;stroke-miterlimit:10;" d="M 5.165 3.235 C 5.165 3.455898 4.985898 3.635 4.765 3.635 C 4.544102 3.635 4.365 3.455898 4.365 3.235 C 4.365 3.014102 4.544102 2.835 4.765 2.835 C 4.985898 2.835 5.165 3.014102 5.165 3.235 " transform="matrix(20,0,0,20,-86.3,-55.7)"/>
<path style="fill-rule:evenodd;fill:rgb(100%,100%,100%);fill-opacity:1;stroke-width:0.1;stroke-linecap:butt;stroke-linejoin:miter;stroke:rgb(0%,0%,0%);stroke-opacity:1;stroke-miterlimit:10;" d="M 5.165 6.235 C 5.165 6.455898 4.985898 6.635 4.765 6.635 C 4.544102 6.635 4.365 6.455898 4.365 6.235 C 4.365 6.014102 4.544102 5.835 4.765 5.835 C 4.985898 5.835 5.165 6.014102 5.165 6.235 " transform="matrix(20,0,0,20,-86.3,-55.7)"/>
<path style="fill-rule:evenodd;fill:rgb(100%,100%,100%);fill-opacity:1;stroke-width:0.1;stroke-linecap:butt;stroke-linejoin:miter;stroke:rgb(0%,0%,0%);stroke-opacity:1;stroke-miterlimit:10;" d="M 7.765 4.835 C 7.765 5.055898 7.585898 5.235 7.365 5.235 C 7.144102 5.235 6.965 5.055898 6.965 4.835 C 6.965 4.614102 7.144102 4.435 7.365 4.435 C 7.585898 4.435 7.765 4.614102 7.765 4.835 " transform="matrix(20,0,0,20,-86.3,-55.7)"/>
<path style="fill-rule:evenodd;fill:rgb(100%,100%,100%);fill-opacity:1;stroke-width:0.1;stroke-linecap:butt;stroke-linejoin:miter;stroke:rgb(0%,0%,0%);stroke-opacity:1;stroke-miterlimit:10;" d="M 7.765 7.835 C 7.765 8.055898 7.585898 8.235 7.365 8.235 C 7.144102 8.235 6.965 8.055898 6.965 7.835 C 6.965 7.614102 7.144102 7.435 7.365 7.435 C 7.585898 7.435 7.765 7.614102 7.765 7.835 " transform="matrix(20,0,0,20,-86.3,-55.7)"/>
<path style="fill-rule:evenodd;fill:rgb(100%,100%,100%);fill-opacity:1;stroke-width:0.1;stroke-linecap:butt;stroke-linejoin:miter;stroke:rgb(0%,0%,0%);stroke-opacity:1;stroke-miterlimit:10;" d="M 10.365 3.235 C 10.365 3.455898 10.185898 3.635 9.965 3.635 C 9.744102 3.635 9.565 3.455898 9.565 3.235 C 9.565 3.014102 9.744102 2.835 9.965 2.835 C 10.185898 2.835 10.365 3.014102 10.365 3.235 " transform="matrix(20,0,0,20,-86.3,-55.7)"/>
<path style="fill-rule:evenodd;fill:rgb(100%,100%,100%);fill-opacity:1;stroke-width:0.1;stroke-linecap:butt;stroke-linejoin:miter;stroke:rgb(0%,0%,0%);stroke-opacity:1;stroke-miterlimit:10;" d="M 10.365 6.235 C 10.365 6.455898 10.185898 6.635 9.965 6.635 C 9.744102 6.635 9.565 6.455898 9.565 6.235 C 9.565 6.014102 9.744102 5.835 9.965 5.835 C 10.185898 5.835 10.365 6.014102 10.365 6.235 " transform="matrix(20,0,0,20,-86.3,-55.7)"/>
</g>
</svg>
