<?xml version="1.0" encoding="UTF-8"?>
<svg xmlns="http://www.w3.org/2000/svg" xmlns:xlink="http://www.w3.org/1999/xlink" width="125pt" height="114pt" viewBox="0 0 125 114" version="1.1">
<g id="surface1224973">
<rect x="0" y="0" width="125" height="114" style="fill:rgb(100%,100%,100%);fill-opacity:1;stroke:none;"/>
<path style="fill:none;stroke-width:0.4;stroke-linecap:butt;stroke-linejoin:miter;stroke:rgb(12.156863%,75.294119%,14.509805%);stroke-opacity:1;stroke-miterlimit:10;" d="M 6.1 1.347461 L 6.1 3.15 " transform="matrix(20,0,0,20,-9,-4.999999)"/>
<path style="fill-rule:evenodd;fill:rgb(12.156863%,75.294119%,14.509805%);fill-opacity:1;stroke-width:0.4;stroke-linecap:butt;stroke-linejoin:miter;stroke:rgb(12.156863%,75.294119%,14.509805%);stroke-opacity:1;stroke-miterlimit:10;" d="M 6.05 3.15 L 6.1 3.25 L 6.15 3.15 Z M 6.05 3.15 " transform="matrix(20,0,0,20,-9,-4.999999)"/>
<path style="fill:none;stroke-width:0.1;stroke-linecap:butt;stroke-linejoin:miter;stroke:rgb(49.803922%,49.803922%,49.803922%);stroke-opacity:1;stroke-miterlimit:10;" d="M 5.594336 1.308398 L 3.964453 2.624805 " transform="matrix(20,0,0,20,-9,-4.999999)"/>
<path style="fill-rule:evenodd;fill:rgb(49.803922%,49.803922%,49.803922%);fill-opacity:1;stroke-width:0.1;stroke-linecap:butt;stroke-linejoin:miter;stroke:rgb(49.803922%,49.803922%,49.803922%);stroke-opacity:1;stroke-miterlimit:10;" d="M 3.933203 2.585937 L 3.886719 2.687695 L 3.995898 2.663672 Z M 3.933203 2.585937 " transform="matrix(20,0,0,20,-9,-4.999999)"/>
<path style="fill-rule:evenodd;fill:rgb(100%,100%,100%);fill-opacity:1;stroke-width:0.1;stroke-linecap:butt;stroke-linejoin:miter;stroke:rgb(0%,0%,0%);stroke-opacity:1;stroke-miterlimit:10;" d="M 1.3 0.9 C 1.3 1.120898 1.120898 1.3 0.9 1.3 C 0.679102 1.3 0.5 1.120898 0.5 0.9 C 0.5 0.679102 0.679102 0.5 0.9 0.5 C 1.120898 0.5 1.3 0.679102 1.3 0.9 " transform="matrix(20,0,0,20,-9,-4.999999)"/>
<path style="fill-rule:evenodd;fill:rgb(100%,100%,100%);fill-opacity:1;stroke-width:0.1;stroke-linecap:butt;stroke-linejoin:miter;stroke:rgb(0%,0%,0%);stroke-opacity:1;stroke-miterlimit:10;" d="M 1.3 3.9 C 1.3 4.120898 1.120898 4.3 0.9 4.3 C 0.679102 4.3 0.5 4.120898 0.5 3.9 C 0.5 3.679102 0.679102 3.5 0.9 3.5 C 1.120898 3.5 1.3 3.679102 1.3 3.9 " transform="matrix(20,0,0,20,-9,-4.999999)"/>
<path style="fill-rule:evenodd;fill:rgb(100%,100%,100%);fill-opacity:1;stroke-width:0.1;stroke-linecap:butt;stroke-linejoin:miter;stroke:rgb(0%,0%,0%);stroke-opacity:1;stroke-miterlimit:10;" d="M 3.9 5.5 C 3.9 5.720898 3.720898 5.9 3.5 5.9 C 3.279102 5.9 3.1 5.720898 3.1 5.5 C 3.1 5.279102 3.279102 5.1 3.5 5.1 C 3.720898 5.1 3.9 5.279102 3.9 5.5 " transform="matrix(20,0,0,20,-9,-4.999999)"/>
<path style="fill-rule:evenodd;fill:rgb(49.803922%,49.803922%,49.803922%);fill-opacity:1;stroke-width:0.1;stroke-linecap:butt;stroke-linejoin:miter;stroke:rgb(0%,0%,0%);stroke-opacity:1;stroke-miterlimit:10;" d="M 6.7 0.9 C 6.7 1.231445 6.431445 1.5 6.1 1.5 C 5.768555 1.5 5.5 1.231445 5.5 0.9 C 5.5 0.568555 5.768555 0.3 6.1 0.3 C 6.431445 0.3 6.7 0.568555 6.7 0.9 " transform="matrix(20,0,0,20,-9,-4.999999)"/>
<path style="fill-rule:evenodd;fill:rgb(100%,100%,100%);fill-opacity:1;stroke-width:0.1;stroke-linecap:butt;stroke-linejoin:miter;stroke:rgb(0%,0%,0%);stroke-opacity:1;stroke-miterlimit:10;" d="M 6.5 3.9 C 6.5 4.120898 6.320898 4.3 6.1 4.3 C 5.879102 4.3 5.7 4.120898 5.7 3.9 C 5.7 3.679102 5.879102 3.5 6.1 3.5 C 6.320898 3.5 6.5 3.679102 6.5 3.9 " transform="matrix(20,0,0,20,-9,-4.999999)"/>
<path style="fill-rule:evenodd;fill:rgb(100%,100%,100%);fill-opacity:1;stroke-width:0.1;stroke-linecap:butt;stroke-linejoin:miter;stroke:rgb(0%,0%,0%);stroke-opacity:1;stroke-miterlimit:10;" d="M 3.9 3 C 3.9 3.220898 3.720898 3.4 3.5 3.4 C 3.279102 3.4 3.1 3.220898 3.1 3 C 3.1 2.779102 3.279102 2.6 3.5 2.6 C 3.720898 2.6 3.9 2.779102 3.9 3 " transform="matrix(20,0,0,20,-9,-4.999999)"/>
<path style="fill:none;stroke-width:0.1;stroke-linecap:butt;stroke-linejoin:miter;stroke:rgb(49.803922%,49.803922%,49.803922%);stroke-opacity:1;stroke-miterlimit:10;" d="M 1.5 0.9 L 5.449609 0.9 " transform="matrix(20,0,0,20,-9,-4.999999)"/>
<path style="fill-rule:evenodd;fill:rgb(49.803922%,49.803922%,49.803922%);fill-opacity:1;stroke-width:0.1;stroke-linecap:butt;stroke-linejoin:miter;stroke:rgb(49.803922%,49.803922%,49.803922%);stroke-opacity:1;stroke-miterlimit:10;" d="M 1.5 0.85 L 1.4 0.9 L 1.5 0.95 Z M 1.5 0.85 " transform="matrix(20,0,0,20,-9,-4.999999)"/>
<path style="fill:none;stroke-width:0.1;stroke-linecap:butt;stroke-linejoin:miter;stroke:rgb(49.803922%,49.803922%,49.803922%);stroke-opacity:1;stroke-miterlimit:10;" d="M 5.538867 1.223633 L 1.419922 3.6 " transform="matrix(20,0,0,20,-9,-4.999999)"/>
<path style="fill-rule:evenodd;fill:rgb(49.803922%,49.803922%,49.803922%);fill-opacity:1;stroke-width:0.1;stroke-linecap:butt;stroke-linejoin:miter;stroke:rgb(49.803922%,49.803922%,49.803922%);stroke-opacity:1;stroke-miterlimit:10;" d="M 1.394922 3.556641 L 1.333398 3.65 L 1.444922 3.643359 Z M 1.394922 3.556641 " transform="matrix(20,0,0,20,-9,-4.999999)"/>
<path style="fill:none;stroke-width:0.1;stroke-linecap:butt;stroke-linejoin:miter;stroke:rgb(49.803922%,49.803922%,49.803922%);stroke-opacity:1;stroke-miterlimit:10;" d="M 5.782617 1.461523 L 3.795117 4.978125 " transform="matrix(20,0,0,20,-9,-4.999999)"/>
<path style="fill-rule:evenodd;fill:rgb(49.803922%,49.803922%,49.803922%);fill-opacity:1;stroke-width:0.1;stroke-linecap:butt;stroke-linejoin:miter;stroke:rgb(49.803922%,49.803922%,49.803922%);stroke-opacity:1;stroke-miterlimit:10;" d="M 3.751562 4.953516 L 3.745898 5.065039 L 3.838477 5.002539 Z M 3.751562 4.953516 " transform="matrix(20,0,0,20,-9,-4.999999)"/>
</g>
</svg>
