<?xml version="1.0" encoding="UTF-8"?>
<svg xmlns="http://www.w3.org/2000/svg" xmlns:xlink="http://www.w3.org/1999/xlink" width="244pt" height="110pt" viewBox="0 0 244 110" version="1.1">
<g id="surface1201573">
<rect x="0" y="0" width="244" height="110" style="fill:rgb(100%,100%,100%);fill-opacity:1;stroke:none;"/>
<path style="fill:none;stroke-width:0.3;stroke-linecap:butt;stroke-linejoin:miter;stroke:rgb(12.156863%,75.294119%,14.509805%);stroke-opacity:1;stroke-miterlimit:10;" d="M 9.169922 3.114258 L 7.749805 3.605859 " transform="matrix(20,0,0,20,-7,-9)"/>
<path style="fill-rule:evenodd;fill:rgb(12.156863%,75.294119%,14.509805%);fill-opacity:1;stroke-width:0.3;stroke-linecap:butt;stroke-linejoin:miter;stroke:rgb(12.156863%,75.294119%,14.509805%);stroke-opacity:1;stroke-miterlimit:10;" d="M 7.717187 3.511328 L 7.560937 3.671289 L 7.782617 3.700391 Z M 7.717187 3.511328 " transform="matrix(20,0,0,20,-7,-9)"/>
<path style="fill-rule:evenodd;fill:rgb(100%,100%,100%);fill-opacity:1;stroke-width:0.1;stroke-linecap:butt;stroke-linejoin:miter;stroke:rgb(0%,0%,0%);stroke-opacity:1;stroke-miterlimit:10;" d="M 7.3 0.9 C 7.3 1.120898 7.120898 1.3 6.9 1.3 C 6.679102 1.3 6.5 1.120898 6.5 0.9 C 6.5 0.679102 6.679102 0.5 6.9 0.5 C 7.120898 0.5 7.3 0.679102 7.3 0.9 " transform="matrix(20,0,0,20,-7,-9)"/>
<path style="fill-rule:evenodd;fill:rgb(100%,100%,100%);fill-opacity:1;stroke-width:0.1;stroke-linecap:butt;stroke-linejoin:miter;stroke:rgb(0%,0%,0%);stroke-opacity:1;stroke-miterlimit:10;" d="M 7.3 3.9 C 7.3 4.120898 7.120898 4.3 6.9 4.3 C 6.679102 4.3 6.5 4.120898 6.5 3.9 C 6.5 3.679102 6.679102 3.5 6.9 3.5 C 7.120898 3.5 7.3 3.679102 7.3 3.9 " transform="matrix(20,0,0,20,-7,-9)"/>
<path style="fill-rule:evenodd;fill:rgb(100%,100%,100%);fill-opacity:1;stroke-width:0.1;stroke-linecap:butt;stroke-linejoin:miter;stroke:rgb(0%,0%,0%);stroke-opacity:1;stroke-miterlimit:10;" d="M 9.9 5.5 C 9.9 5.720898 9.720898 5.9 9.5 5.9 C 9.279102 5.9 9.1 5.720898 9.1 5.5 C 9.1 5.279102 9.279102 5.1 9.5 5.1 C 9.720898 5.1 9.9 5.279102 9.9 5.5 " transform="matrix(20,0,0,20,-7,-9)"/>
<path style="fill-rule:evenodd;fill:rgb(100%,100%,100%);fill-opacity:1;stroke-width:0.1;stroke-linecap:butt;stroke-linejoin:miter;stroke:rgb(0%,0%,0%);stroke-opacity:1;stroke-miterlimit:10;" d="M 12.5 0.9 C 12.5 1.120898 12.320898 1.3 12.1 1.3 C 11.879102 1.3 11.7 1.120898 11.7 0.9 C 11.7 0.679102 11.879102 0.5 12.1 0.5 C 12.320898 0.5 12.5 0.679102 12.5 0.9 " transform="matrix(20,0,0,20,-7,-9)"/>
<path style="fill-rule:evenodd;fill:rgb(100%,100%,100%);fill-opacity:1;stroke-width:0.1;stroke-linecap:butt;stroke-linejoin:miter;stroke:rgb(0%,0%,0%);stroke-opacity:1;stroke-miterlimit:10;" d="M 12.5 3.9 C 12.5 4.120898 12.320898 4.3 12.1 4.3 C 11.879102 4.3 11.7 4.120898 11.7 3.9 C 11.7 3.679102 11.879102 3.5 12.1 3.5 C 12.320898 3.5 12.5 3.679102 12.5 3.9 " transform="matrix(20,0,0,20,-7,-9)"/>
<path style="fill:none;stroke-width:0.3;stroke-linecap:butt;stroke-linejoin:miter;stroke:rgb(0%,0%,0%);stroke-opacity:1;stroke-miterlimit:10;" d="M 0.5 2.5 L 1.85 2.5 " transform="matrix(20,0,0,20,-7,-9)"/>
<path style="fill-rule:evenodd;fill:rgb(0%,0%,0%);fill-opacity:1;stroke-width:0.3;stroke-linecap:butt;stroke-linejoin:miter;stroke:rgb(0%,0%,0%);stroke-opacity:1;stroke-miterlimit:10;" d="M 1.85 2.75 L 2.35 2.5 L 1.85 2.25 Z M 1.85 2.75 " transform="matrix(20,0,0,20,-7,-9)"/>
<path style="fill:none;stroke-width:0.1;stroke-linecap:butt;stroke-linejoin:miter;stroke:rgb(49.803922%,49.803922%,49.803922%);stroke-opacity:1;stroke-miterlimit:10;" d="M 9.847852 2.719141 L 11.557617 1.338086 " transform="matrix(20,0,0,20,-7,-9)"/>
<path style="fill-rule:evenodd;fill:rgb(49.803922%,49.803922%,49.803922%);fill-opacity:1;stroke-width:0.1;stroke-linecap:butt;stroke-linejoin:miter;stroke:rgb(49.803922%,49.803922%,49.803922%);stroke-opacity:1;stroke-miterlimit:10;" d="M 11.620508 1.41582 L 11.713281 1.212305 L 11.494922 1.260156 Z M 11.620508 1.41582 " transform="matrix(20,0,0,20,-7,-9)"/>
<path style="fill:none;stroke-width:0.1;stroke-linecap:butt;stroke-linejoin:miter;stroke:rgb(49.803922%,49.803922%,49.803922%);stroke-opacity:1;stroke-miterlimit:10;" d="M 9.924609 3.14707 L 11.439062 3.671289 " transform="matrix(20,0,0,20,-7,-9)"/>
<path style="fill-rule:evenodd;fill:rgb(49.803922%,49.803922%,49.803922%);fill-opacity:1;stroke-width:0.1;stroke-linecap:butt;stroke-linejoin:miter;stroke:rgb(49.803922%,49.803922%,49.803922%);stroke-opacity:1;stroke-miterlimit:10;" d="M 11.406445 3.76582 L 11.628125 3.736719 L 11.471875 3.576758 Z M 11.406445 3.76582 " transform="matrix(20,0,0,20,-7,-9)"/>
<path style="fill:none;stroke-width:0.1;stroke-linecap:butt;stroke-linejoin:miter;stroke:rgb(49.803922%,49.803922%,49.803922%);stroke-opacity:1;stroke-miterlimit:10;" d="M 9.152148 2.719141 L 7.442383 1.338086 " transform="matrix(20,0,0,20,-7,-9)"/>
<path style="fill-rule:evenodd;fill:rgb(49.803922%,49.803922%,49.803922%);fill-opacity:1;stroke-width:0.1;stroke-linecap:butt;stroke-linejoin:miter;stroke:rgb(49.803922%,49.803922%,49.803922%);stroke-opacity:1;stroke-miterlimit:10;" d="M 7.505078 1.260156 L 7.286719 1.212305 L 7.379492 1.41582 Z M 7.505078 1.260156 " transform="matrix(20,0,0,20,-7,-9)"/>
<path style="fill:none;stroke-width:0.1;stroke-linecap:butt;stroke-linejoin:miter;stroke:rgb(49.803922%,49.803922%,49.803922%);stroke-opacity:1;stroke-miterlimit:10;" d="M 9.5 3.449805 L 9.5 4.900195 " transform="matrix(20,0,0,20,-7,-9)"/>
<path style="fill-rule:evenodd;fill:rgb(49.803922%,49.803922%,49.803922%);fill-opacity:1;stroke-width:0.1;stroke-linecap:butt;stroke-linejoin:miter;stroke:rgb(49.803922%,49.803922%,49.803922%);stroke-opacity:1;stroke-miterlimit:10;" d="M 9.45 4.900195 L 9.5 5.000195 L 9.55 4.900195 Z M 9.45 4.900195 " transform="matrix(20,0,0,20,-7,-9)"/>
<path style="fill-rule:evenodd;fill:rgb(12.156863%,75.294119%,14.509805%);fill-opacity:1;stroke-width:0.1;stroke-linecap:butt;stroke-linejoin:miter;stroke:rgb(0%,0%,0%);stroke-opacity:1;stroke-miterlimit:10;" d="M 9.9 3 C 9.9 3.220898 9.720898 3.4 9.5 3.4 C 9.279102 3.4 9.1 3.220898 9.1 3 C 9.1 2.779102 9.279102 2.6 9.5 2.6 C 9.720898 2.6 9.9 2.779102 9.9 3 " transform="matrix(20,0,0,20,-7,-9)"/>
</g>
</svg>
