<?xml version="1.0" encoding="UTF-8"?>
<svg xmlns="http://www.w3.org/2000/svg" xmlns:xlink="http://www.w3.org/1999/xlink" width="126pt" height="114pt" viewBox="0 0 126 114" version="1.1">
<g id="surface1216644">
<rect x="0" y="0" width="126" height="114" style="fill:rgb(100%,100%,100%);fill-opacity:1;stroke:none;"/>
<path style="fill:none;stroke-width:0.4;stroke-linecap:butt;stroke-linejoin:miter;stroke:rgb(12.156863%,75.294119%,14.509805%);stroke-opacity:1;stroke-miterlimit:10;" d="M 1.487891 1.323828 L 5.65 3.725 " transform="matrix(20,0,0,20,-9,-9)"/>
<path style="fill-rule:evenodd;fill:rgb(12.156863%,75.294119%,14.509805%);fill-opacity:1;stroke-width:0.4;stroke-linecap:butt;stroke-linejoin:miter;stroke:rgb(12.156863%,75.294119%,14.509805%);stroke-opacity:1;stroke-miterlimit:10;" d="M 5.625 3.768359 L 5.736719 3.775 L 5.675 3.681641 Z M 5.625 3.768359 " transform="matrix(20,0,0,20,-9,-9)"/>
<path style="fill-rule:evenodd;fill:rgb(49.803922%,49.803922%,49.803922%);fill-opacity:1;stroke-width:0.1;stroke-linecap:butt;stroke-linejoin:miter;stroke:rgb(0%,0%,0%);stroke-opacity:1;stroke-miterlimit:10;" d="M 1.7 1.1 C 1.7 1.431445 1.431445 1.7 1.1 1.7 C 0.768555 1.7 0.5 1.431445 0.5 1.1 C 0.5 0.768555 0.768555 0.5 1.1 0.5 C 1.431445 0.5 1.7 0.768555 1.7 1.1 " transform="matrix(20,0,0,20,-9,-9)"/>
<path style="fill-rule:evenodd;fill:rgb(100%,100%,100%);fill-opacity:1;stroke-width:0.1;stroke-linecap:butt;stroke-linejoin:miter;stroke:rgb(0%,0%,0%);stroke-opacity:1;stroke-miterlimit:10;" d="M 1.5 4.1 C 1.5 4.320898 1.320898 4.5 1.1 4.5 C 0.879102 4.5 0.7 4.320898 0.7 4.1 C 0.7 3.879102 0.879102 3.7 1.1 3.7 C 1.320898 3.7 1.5 3.879102 1.5 4.1 " transform="matrix(20,0,0,20,-9,-9)"/>
<path style="fill-rule:evenodd;fill:rgb(100%,100%,100%);fill-opacity:1;stroke-width:0.1;stroke-linecap:butt;stroke-linejoin:miter;stroke:rgb(0%,0%,0%);stroke-opacity:1;stroke-miterlimit:10;" d="M 4.1 5.7 C 4.1 5.920898 3.920898 6.1 3.7 6.1 C 3.479102 6.1 3.3 5.920898 3.3 5.7 C 3.3 5.479102 3.479102 5.3 3.7 5.3 C 3.920898 5.3 4.1 5.479102 4.1 5.7 " transform="matrix(20,0,0,20,-9,-9)"/>
<path style="fill-rule:evenodd;fill:rgb(100%,100%,100%);fill-opacity:1;stroke-width:0.1;stroke-linecap:butt;stroke-linejoin:miter;stroke:rgb(0%,0%,0%);stroke-opacity:1;stroke-miterlimit:10;" d="M 6.7 1.1 C 6.7 1.320898 6.520898 1.5 6.3 1.5 C 6.079102 1.5 5.9 1.320898 5.9 1.1 C 5.9 0.879102 6.079102 0.7 6.3 0.7 C 6.520898 0.7 6.7 0.879102 6.7 1.1 " transform="matrix(20,0,0,20,-9,-9)"/>
<path style="fill-rule:evenodd;fill:rgb(100%,100%,100%);fill-opacity:1;stroke-width:0.1;stroke-linecap:butt;stroke-linejoin:miter;stroke:rgb(0%,0%,0%);stroke-opacity:1;stroke-miterlimit:10;" d="M 6.7 4.1 C 6.7 4.320898 6.520898 4.5 6.3 4.5 C 6.079102 4.5 5.9 4.320898 5.9 4.1 C 5.9 3.879102 6.079102 3.7 6.3 3.7 C 6.520898 3.7 6.7 3.879102 6.7 4.1 " transform="matrix(20,0,0,20,-9,-9)"/>
<path style="fill-rule:evenodd;fill:rgb(100%,100%,100%);fill-opacity:1;stroke-width:0.1;stroke-linecap:butt;stroke-linejoin:miter;stroke:rgb(0%,0%,0%);stroke-opacity:1;stroke-miterlimit:10;" d="M 4 3.1 C 4 3.320898 3.820898 3.5 3.6 3.5 C 3.379102 3.5 3.2 3.320898 3.2 3.1 C 3.2 2.879102 3.379102 2.7 3.6 2.7 C 3.820898 2.7 4 2.879102 4 3.1 " transform="matrix(20,0,0,20,-9,-9)"/>
<path style="fill:none;stroke-width:0.1;stroke-linecap:butt;stroke-linejoin:miter;stroke:rgb(49.803922%,49.803922%,49.803922%);stroke-opacity:1;stroke-miterlimit:10;" d="M 1.1 1.747461 L 1.1 3.5 " transform="matrix(20,0,0,20,-9,-9)"/>
<path style="fill-rule:evenodd;fill:rgb(49.803922%,49.803922%,49.803922%);fill-opacity:1;stroke-width:0.1;stroke-linecap:butt;stroke-linejoin:miter;stroke:rgb(49.803922%,49.803922%,49.803922%);stroke-opacity:1;stroke-miterlimit:10;" d="M 1.05 3.5 L 1.1 3.6 L 1.15 3.5 Z M 1.05 3.5 " transform="matrix(20,0,0,20,-9,-9)"/>
<path style="fill:none;stroke-width:0.1;stroke-linecap:butt;stroke-linejoin:miter;stroke:rgb(49.803922%,49.803922%,49.803922%);stroke-opacity:1;stroke-miterlimit:10;" d="M 1.417383 1.661523 L 3.404883 5.178125 " transform="matrix(20,0,0,20,-9,-9)"/>
<path style="fill-rule:evenodd;fill:rgb(49.803922%,49.803922%,49.803922%);fill-opacity:1;stroke-width:0.1;stroke-linecap:butt;stroke-linejoin:miter;stroke:rgb(49.803922%,49.803922%,49.803922%);stroke-opacity:1;stroke-miterlimit:10;" d="M 3.361523 5.202539 L 3.454102 5.265039 L 3.448437 5.153516 Z M 3.361523 5.202539 " transform="matrix(20,0,0,20,-9,-9)"/>
<path style="fill:none;stroke-width:0.1;stroke-linecap:butt;stroke-linejoin:miter;stroke:rgb(49.803922%,49.803922%,49.803922%);stroke-opacity:1;stroke-miterlimit:10;" d="M 1.750391 1.1 L 5.7 1.1 " transform="matrix(20,0,0,20,-9,-9)"/>
<path style="fill-rule:evenodd;fill:rgb(49.803922%,49.803922%,49.803922%);fill-opacity:1;stroke-width:0.1;stroke-linecap:butt;stroke-linejoin:miter;stroke:rgb(49.803922%,49.803922%,49.803922%);stroke-opacity:1;stroke-miterlimit:10;" d="M 5.7 1.15 L 5.8 1.1 L 5.7 1.05 Z M 5.7 1.15 " transform="matrix(20,0,0,20,-9,-9)"/>
<path style="fill:none;stroke-width:0.1;stroke-linecap:butt;stroke-linejoin:miter;stroke:rgb(49.803922%,49.803922%,49.803922%);stroke-opacity:1;stroke-miterlimit:10;" d="M 1.588281 1.490625 L 3.150781 2.740625 " transform="matrix(20,0,0,20,-9,-9)"/>
<path style="fill-rule:evenodd;fill:rgb(49.803922%,49.803922%,49.803922%);fill-opacity:1;stroke-width:0.1;stroke-linecap:butt;stroke-linejoin:miter;stroke:rgb(49.803922%,49.803922%,49.803922%);stroke-opacity:1;stroke-miterlimit:10;" d="M 3.119531 2.779687 L 3.228906 2.803125 L 3.182031 2.701562 Z M 3.119531 2.779687 " transform="matrix(20,0,0,20,-9,-9)"/>
</g>
</svg>
