<?xml version="1.0" encoding="UTF-8"?>
<svg xmlns="http://www.w3.org/2000/svg" xmlns:xlink="http://www.w3.org/1999/xlink" width="244pt" height="110pt" viewBox="0 0 244 110" version="1.1">
<g id="surface1538415">
<rect x="0" y="0" width="244" height="110" style="fill:rgb(100%,100%,100%);fill-opacity:1;stroke:none;"/>
<path style="fill:none;stroke-width:0.1;stroke-linecap:butt;stroke-linejoin:miter;stroke:rgb(49.803922%,49.803922%,49.803922%);stroke-opacity:1;stroke-miterlimit:10;" d="M 7.290039 3.675 L 11.709961 1.125 " transform="matrix(20,0,0,20,-7,-9)"/>
<path style="fill:none;stroke-width:0.3;stroke-linecap:butt;stroke-linejoin:miter;stroke:rgb(0%,0%,0%);stroke-opacity:1;stroke-miterlimit:10;" d="M 0.5 2.5 L 1.85 2.5 " transform="matrix(20,0,0,20,-7,-9)"/>
<path style="fill-rule:evenodd;fill:rgb(0%,0%,0%);fill-opacity:1;stroke-width:0.3;stroke-linecap:butt;stroke-linejoin:miter;stroke:rgb(0%,0%,0%);stroke-opacity:1;stroke-miterlimit:10;" d="M 1.85 2.75 L 2.35 2.5 L 1.85 2.25 Z M 1.85 2.75 " transform="matrix(20,0,0,20,-7,-9)"/>
<path style="fill-rule:evenodd;fill:rgb(100%,100%,100%);fill-opacity:1;stroke-width:0.1;stroke-linecap:butt;stroke-linejoin:miter;stroke:rgb(0%,0%,0%);stroke-opacity:1;stroke-miterlimit:10;" d="M 7.3 3.9 C 7.3 4.120898 7.120898 4.3 6.9 4.3 C 6.679102 4.3 6.5 4.120898 6.5 3.9 C 6.5 3.679102 6.679102 3.5 6.9 3.5 C 7.120898 3.5 7.3 3.679102 7.3 3.9 " transform="matrix(20,0,0,20,-7,-9)"/>
<path style="fill-rule:evenodd;fill:rgb(100%,100%,100%);fill-opacity:1;stroke-width:0.1;stroke-linecap:butt;stroke-linejoin:miter;stroke:rgb(0%,0%,0%);stroke-opacity:1;stroke-miterlimit:10;" d="M 12.5 3.9 C 12.5 4.120898 12.320898 4.3 12.1 4.3 C 11.879102 4.3 11.7 4.120898 11.7 3.9 C 11.7 3.679102 11.879102 3.5 12.1 3.5 C 12.320898 3.5 12.5 3.679102 12.5 3.9 " transform="matrix(20,0,0,20,-7,-9)"/>
<path style="fill:none;stroke-width:0.1;stroke-linecap:butt;stroke-linejoin:miter;stroke:rgb(49.803922%,49.803922%,49.803922%);stroke-opacity:1;stroke-miterlimit:10;" d="M 6.9 3.45 L 6.9 1.35 " transform="matrix(20,0,0,20,-7,-9)"/>
<path style="fill:none;stroke-width:0.1;stroke-linecap:butt;stroke-linejoin:miter;stroke:rgb(49.803922%,49.803922%,49.803922%);stroke-opacity:1;stroke-miterlimit:10;" d="M 7.35 3.9 L 11.65 3.9 " transform="matrix(20,0,0,20,-7,-9)"/>
<path style="fill:none;stroke-width:0.1;stroke-linecap:butt;stroke-linejoin:miter;stroke:rgb(49.803922%,49.803922%,49.803922%);stroke-opacity:1;stroke-miterlimit:10;" d="M 7.121289 1.291406 L 9.278711 5.108594 " transform="matrix(20,0,0,20,-7,-9)"/>
<path style="fill:none;stroke-width:0.1;stroke-linecap:butt;stroke-linejoin:miter;stroke:rgb(49.803922%,49.803922%,49.803922%);stroke-opacity:1;stroke-miterlimit:10;" d="M 7.35 0.9 L 11.65 0.9 " transform="matrix(20,0,0,20,-7,-9)"/>
<path style="fill:none;stroke-width:0.1;stroke-linecap:butt;stroke-linejoin:miter;stroke:rgb(49.803922%,49.803922%,49.803922%);stroke-opacity:1;stroke-miterlimit:10;" d="M 7.243359 1.190625 L 9.156641 2.809375 " transform="matrix(20,0,0,20,-7,-9)"/>
<path style="fill:none;stroke-width:0.1;stroke-linecap:butt;stroke-linejoin:miter;stroke:rgb(49.803922%,49.803922%,49.803922%);stroke-opacity:1;stroke-miterlimit:10;" d="M 11.756641 1.190625 L 9.843359 2.809375 " transform="matrix(20,0,0,20,-7,-9)"/>
<path style="fill:none;stroke-width:0.1;stroke-linecap:butt;stroke-linejoin:miter;stroke:rgb(49.803922%,49.803922%,49.803922%);stroke-opacity:1;stroke-miterlimit:10;" d="M 11.878711 1.291406 L 9.721289 5.108594 " transform="matrix(20,0,0,20,-7,-9)"/>
<path style="fill:none;stroke-width:0.1;stroke-linecap:butt;stroke-linejoin:miter;stroke:rgb(49.803922%,49.803922%,49.803922%);stroke-opacity:1;stroke-miterlimit:10;" d="M 11.670312 3.767773 L 9.929687 3.232227 " transform="matrix(20,0,0,20,-7,-9)"/>
<path style="fill:none;stroke-width:0.1;stroke-linecap:butt;stroke-linejoin:miter;stroke:rgb(49.803922%,49.803922%,49.803922%);stroke-opacity:1;stroke-miterlimit:10;" d="M 11.717969 4.135156 L 9.882227 5.264844 " transform="matrix(20,0,0,20,-7,-9)"/>
<path style="fill:none;stroke-width:0.1;stroke-linecap:butt;stroke-linejoin:miter;stroke:rgb(49.803922%,49.803922%,49.803922%);stroke-opacity:1;stroke-miterlimit:10;" d="M 9.5 3.550391 L 9.5 5.049805 " transform="matrix(20,0,0,20,-7,-9)"/>
<path style="fill:none;stroke-width:0.2;stroke-linecap:butt;stroke-linejoin:miter;stroke:rgb(100%,0%,0%);stroke-opacity:1;stroke-miterlimit:10;" d="M 9.16582 3.202734 L 7.712109 3.650195 " transform="matrix(20,0,0,20,-7,-9)"/>
<path style="fill-rule:evenodd;fill:rgb(100%,0%,0%);fill-opacity:1;stroke-width:0.2;stroke-linecap:butt;stroke-linejoin:miter;stroke:rgb(100%,0%,0%);stroke-opacity:1;stroke-miterlimit:10;" d="M 7.667969 3.506836 L 7.425391 3.738281 L 7.75625 3.793555 Z M 7.667969 3.506836 " transform="matrix(20,0,0,20,-7,-9)"/>
<path style="fill:none;stroke-width:0.2;stroke-linecap:butt;stroke-linejoin:miter;stroke:rgb(100%,0%,0%);stroke-opacity:1;stroke-miterlimit:10;" d="M 7.203516 1.075 L 11.363477 3.475 " transform="matrix(20,0,0,20,-7,-9)"/>
<path style="fill-rule:evenodd;fill:rgb(100%,0%,0%);fill-opacity:1;stroke-width:0.2;stroke-linecap:butt;stroke-linejoin:miter;stroke:rgb(100%,0%,0%);stroke-opacity:1;stroke-miterlimit:10;" d="M 11.288477 3.605078 L 11.623242 3.625 L 11.438477 3.345117 Z M 11.288477 3.605078 " transform="matrix(20,0,0,20,-7,-9)"/>
<path style="fill:none;stroke-width:0.2;stroke-linecap:butt;stroke-linejoin:miter;stroke:rgb(100%,0%,0%);stroke-opacity:1;stroke-miterlimit:10;" d="M 7.537695 4.292383 L 9.203125 5.317187 " transform="matrix(20,0,0,20,-7,-9)"/>
<path style="fill-rule:evenodd;fill:rgb(100%,0%,0%);fill-opacity:1;stroke-width:0.2;stroke-linecap:butt;stroke-linejoin:miter;stroke:rgb(100%,0%,0%);stroke-opacity:1;stroke-miterlimit:10;" d="M 7.616211 4.164648 L 7.282227 4.135156 L 7.458984 4.420117 Z M 7.616211 4.164648 " transform="matrix(20,0,0,20,-7,-9)"/>
<path style="fill-rule:evenodd;fill:rgb(100%,100%,100%);fill-opacity:1;stroke-width:0.1;stroke-linecap:butt;stroke-linejoin:miter;stroke:rgb(0%,0%,0%);stroke-opacity:1;stroke-miterlimit:10;" d="M 9.9 5.5 C 9.9 5.720898 9.720898 5.9 9.5 5.9 C 9.279102 5.9 9.1 5.720898 9.1 5.5 C 9.1 5.279102 9.279102 5.1 9.5 5.1 C 9.720898 5.1 9.9 5.279102 9.9 5.5 " transform="matrix(20,0,0,20,-7,-9)"/>
<path style="fill-rule:evenodd;fill:rgb(100%,100%,100%);fill-opacity:1;stroke-width:0.1;stroke-linecap:butt;stroke-linejoin:miter;stroke:rgb(0%,0%,0%);stroke-opacity:1;stroke-miterlimit:10;" d="M 9.9 3.1 C 9.9 3.320898 9.720898 3.5 9.5 3.5 C 9.279102 3.5 9.1 3.320898 9.1 3.1 C 9.1 2.879102 9.279102 2.7 9.5 2.7 C 9.720898 2.7 9.9 2.879102 9.9 3.1 " transform="matrix(20,0,0,20,-7,-9)"/>
<path style="fill-rule:evenodd;fill:rgb(100%,100%,100%);fill-opacity:1;stroke-width:0.1;stroke-linecap:butt;stroke-linejoin:miter;stroke:rgb(0%,0%,0%);stroke-opacity:1;stroke-miterlimit:10;" d="M 7.3 0.9 C 7.3 1.120898 7.120898 1.3 6.9 1.3 C 6.679102 1.3 6.5 1.120898 6.5 0.9 C 6.5 0.679102 6.679102 0.5 6.9 0.5 C 7.120898 0.5 7.3 0.679102 7.3 0.9 " transform="matrix(20,0,0,20,-7,-9)"/>
<path style="fill-rule:evenodd;fill:rgb(100%,100%,100%);fill-opacity:1;stroke-width:0.1;stroke-linecap:butt;stroke-linejoin:miter;stroke:rgb(0%,0%,0%);stroke-opacity:1;stroke-miterlimit:10;" d="M 12.5 0.9 C 12.5 1.120898 12.320898 1.3 12.1 1.3 C 11.879102 1.3 11.7 1.120898 11.7 0.9 C 11.7 0.679102 11.879102 0.5 12.1 0.5 C 12.320898 0.5 12.5 0.679102 12.5 0.9 " transform="matrix(20,0,0,20,-7,-9)"/>
<path style="fill:none;stroke-width:0.2;stroke-linecap:butt;stroke-linejoin:miter;stroke:rgb(100%,0%,0%);stroke-opacity:1;stroke-miterlimit:10;" d="M 12.1 1.75 L 12.1 3.05 " transform="matrix(20,0,0,20,-7,-9)"/>
<path style="fill-rule:evenodd;fill:rgb(100%,0%,0%);fill-opacity:1;stroke-width:0.2;stroke-linecap:butt;stroke-linejoin:miter;stroke:rgb(100%,0%,0%);stroke-opacity:1;stroke-miterlimit:10;" d="M 12.25 1.75 L 12.1 1.45 L 11.95 1.75 Z M 12.25 1.75 " transform="matrix(20,0,0,20,-7,-9)"/>
<path style="fill-rule:evenodd;fill:rgb(100%,0%,0%);fill-opacity:1;stroke-width:0.2;stroke-linecap:butt;stroke-linejoin:miter;stroke:rgb(100%,0%,0%);stroke-opacity:1;stroke-miterlimit:10;" d="M 11.95 3.05 L 12.1 3.35 L 12.25 3.05 Z M 11.95 3.05 " transform="matrix(20,0,0,20,-7,-9)"/>
</g>
</svg>
