<?xml version="1.0" encoding="UTF-8"?>
<svg xmlns="http://www.w3.org/2000/svg" xmlns:xlink="http://www.w3.org/1999/xlink" width="244pt" height="110pt" viewBox="0 0 244 110" version="1.1">
<g id="surface1428345">
<rect x="0" y="0" width="244" height="110" style="fill:rgb(100%,100%,100%);fill-opacity:1;stroke:none;"/>
<path style="fill:none;stroke-width:0.1;stroke-linecap:butt;stroke-linejoin:miter;stroke:rgb(100%,0%,0%);stroke-opacity:1;stroke-miterlimit:10;" d="M 7.196875 4.082812 L 9.203125 5.317187 " transform="matrix(20,0,0,20,-7,-9)"/>
<path style="fill:none;stroke-width:0.2;stroke-linecap:butt;stroke-linejoin:miter;stroke:rgb(100%,0%,0%);stroke-opacity:1;stroke-miterlimit:10;" d="M 6.9 3.55 L 6.9 1.25 " transform="matrix(20,0,0,20,-7,-9)"/>
<path style="fill:none;stroke-width:0.1;stroke-linecap:butt;stroke-linejoin:miter;stroke:rgb(100%,0%,0%);stroke-opacity:1;stroke-miterlimit:10;" d="M 7.282227 1.135156 L 9.117969 2.264844 " transform="matrix(20,0,0,20,-7,-9)"/>
<path style="fill:none;stroke-width:0.1;stroke-linecap:butt;stroke-linejoin:miter;stroke:rgb(100%,0%,0%);stroke-opacity:1;stroke-miterlimit:10;" d="M 7.35 0.9 L 11.65 0.9 " transform="matrix(20,0,0,20,-7,-9)"/>
<path style="fill:none;stroke-width:0.2;stroke-linecap:butt;stroke-linejoin:miter;stroke:rgb(100%,0%,0%);stroke-opacity:1;stroke-miterlimit:10;" d="M 12.1 0.85 L 12.1 3.95 " transform="matrix(20,0,0,20,-7,-9)"/>
<path style="fill:none;stroke-width:0.5;stroke-linecap:butt;stroke-linejoin:miter;stroke:rgb(100%,0%,0%);stroke-opacity:1;stroke-miterlimit:10;" d="M 9.45625 2.526953 L 12.14375 0.873047 " transform="matrix(20,0,0,20,-7,-9)"/>
<path style="fill:none;stroke-width:0.8;stroke-linecap:butt;stroke-linejoin:miter;stroke:rgb(100%,0%,0%);stroke-opacity:1;stroke-miterlimit:10;" d="M 9.54375 2.476367 L 6.85625 3.923633 " transform="matrix(20,0,0,20,-7,-9)"/>
<path style="fill-rule:evenodd;fill:rgb(100%,100%,100%);fill-opacity:1;stroke-width:0.1;stroke-linecap:butt;stroke-linejoin:miter;stroke:rgb(0%,0%,0%);stroke-opacity:1;stroke-miterlimit:10;" d="M 7.3 0.9 C 7.3 1.120898 7.120898 1.3 6.9 1.3 C 6.679102 1.3 6.5 1.120898 6.5 0.9 C 6.5 0.679102 6.679102 0.5 6.9 0.5 C 7.120898 0.5 7.3 0.679102 7.3 0.9 " transform="matrix(20,0,0,20,-7,-9)"/>
<path style="fill-rule:evenodd;fill:rgb(100%,100%,100%);fill-opacity:1;stroke-width:0.1;stroke-linecap:butt;stroke-linejoin:miter;stroke:rgb(0%,0%,0%);stroke-opacity:1;stroke-miterlimit:10;" d="M 7.3 3.9 C 7.3 4.120898 7.120898 4.3 6.9 4.3 C 6.679102 4.3 6.5 4.120898 6.5 3.9 C 6.5 3.679102 6.679102 3.5 6.9 3.5 C 7.120898 3.5 7.3 3.679102 7.3 3.9 " transform="matrix(20,0,0,20,-7,-9)"/>
<path style="fill-rule:evenodd;fill:rgb(100%,100%,100%);fill-opacity:1;stroke-width:0.1;stroke-linecap:butt;stroke-linejoin:miter;stroke:rgb(0%,0%,0%);stroke-opacity:1;stroke-miterlimit:10;" d="M 9.9 2.5 C 9.9 2.720898 9.720898 2.9 9.5 2.9 C 9.279102 2.9 9.1 2.720898 9.1 2.5 C 9.1 2.279102 9.279102 2.1 9.5 2.1 C 9.720898 2.1 9.9 2.279102 9.9 2.5 " transform="matrix(20,0,0,20,-7,-9)"/>
<path style="fill-rule:evenodd;fill:rgb(100%,100%,100%);fill-opacity:1;stroke-width:0.1;stroke-linecap:butt;stroke-linejoin:miter;stroke:rgb(0%,0%,0%);stroke-opacity:1;stroke-miterlimit:10;" d="M 9.9 5.5 C 9.9 5.720898 9.720898 5.9 9.5 5.9 C 9.279102 5.9 9.1 5.720898 9.1 5.5 C 9.1 5.279102 9.279102 5.1 9.5 5.1 C 9.720898 5.1 9.9 5.279102 9.9 5.5 " transform="matrix(20,0,0,20,-7,-9)"/>
<path style="fill-rule:evenodd;fill:rgb(100%,100%,100%);fill-opacity:1;stroke-width:0.1;stroke-linecap:butt;stroke-linejoin:miter;stroke:rgb(0%,0%,0%);stroke-opacity:1;stroke-miterlimit:10;" d="M 12.5 0.9 C 12.5 1.120898 12.320898 1.3 12.1 1.3 C 11.879102 1.3 11.7 1.120898 11.7 0.9 C 11.7 0.679102 11.879102 0.5 12.1 0.5 C 12.320898 0.5 12.5 0.679102 12.5 0.9 " transform="matrix(20,0,0,20,-7,-9)"/>
<path style="fill-rule:evenodd;fill:rgb(100%,100%,100%);fill-opacity:1;stroke-width:0.1;stroke-linecap:butt;stroke-linejoin:miter;stroke:rgb(0%,0%,0%);stroke-opacity:1;stroke-miterlimit:10;" d="M 12.5 3.9 C 12.5 4.120898 12.320898 4.3 12.1 4.3 C 11.879102 4.3 11.7 4.120898 11.7 3.9 C 11.7 3.679102 11.879102 3.5 12.1 3.5 C 12.320898 3.5 12.5 3.679102 12.5 3.9 " transform="matrix(20,0,0,20,-7,-9)"/>
<path style="fill:none;stroke-width:0.3;stroke-linecap:butt;stroke-linejoin:miter;stroke:rgb(0%,0%,0%);stroke-opacity:1;stroke-miterlimit:10;" d="M 0.5 2.5 L 1.85 2.5 " transform="matrix(20,0,0,20,-7,-9)"/>
<path style="fill-rule:evenodd;fill:rgb(0%,0%,0%);fill-opacity:1;stroke-width:0.3;stroke-linecap:butt;stroke-linejoin:miter;stroke:rgb(0%,0%,0%);stroke-opacity:1;stroke-miterlimit:10;" d="M 1.85 2.75 L 2.35 2.5 L 1.85 2.25 Z M 1.85 2.75 " transform="matrix(20,0,0,20,-7,-9)"/>
</g>
</svg>
