<?xml version="1.0" encoding="UTF-8"?>
<svg xmlns="http://www.w3.org/2000/svg" xmlns:xlink="http://www.w3.org/1999/xlink" width="126pt" height="110pt" viewBox="0 0 126 110" version="1.1">
<g id="surface1398351">
<rect x="0" y="0" width="126" height="110" style="fill:rgb(100%,100%,100%);fill-opacity:1;stroke:none;"/>
<path style="fill:none;stroke-width:0.1;stroke-linecap:butt;stroke-linejoin:miter;stroke:rgb(100%,0%,0%);stroke-opacity:1;stroke-miterlimit:10;" d="M 1.36875 4.188477 L 3.203125 5.317187 " transform="matrix(20,0,0,20,-5,-9)"/>
<path style="fill:none;stroke-width:0.4;stroke-linecap:butt;stroke-linejoin:miter;stroke:rgb(100%,0%,0%);stroke-opacity:1;stroke-miterlimit:10;" d="M 3.191602 2.666016 L 1.383789 3.639453 " transform="matrix(20,0,0,20,-5,-9)"/>
<path style="fill:none;stroke-width:0.2;stroke-linecap:butt;stroke-linejoin:miter;stroke:rgb(100%,0%,0%);stroke-opacity:1;stroke-miterlimit:10;" d="M 0.9 3.352539 L 0.9 1.25 " transform="matrix(20,0,0,20,-5,-9)"/>
<path style="fill-rule:evenodd;fill:rgb(100%,100%,100%);fill-opacity:1;stroke-width:0.1;stroke-linecap:butt;stroke-linejoin:miter;stroke:rgb(0%,0%,0%);stroke-opacity:1;stroke-miterlimit:10;" d="M 1.3 0.9 C 1.3 1.120898 1.120898 1.3 0.9 1.3 C 0.679102 1.3 0.5 1.120898 0.5 0.9 C 0.5 0.679102 0.679102 0.5 0.9 0.5 C 1.120898 0.5 1.3 0.679102 1.3 0.9 " transform="matrix(20,0,0,20,-5,-9)"/>
<path style="fill-rule:evenodd;fill:rgb(49.803922%,49.803922%,49.803922%);fill-opacity:1;stroke-width:0.1;stroke-linecap:butt;stroke-linejoin:miter;stroke:rgb(0%,0%,0%);stroke-opacity:1;stroke-miterlimit:10;" d="M 1.5 3.9 C 1.5 4.231445 1.231445 4.5 0.9 4.5 C 0.568555 4.5 0.3 4.231445 0.3 3.9 C 0.3 3.568555 0.568555 3.3 0.9 3.3 C 1.231445 3.3 1.5 3.568555 1.5 3.9 " transform="matrix(20,0,0,20,-5,-9)"/>
<path style="fill-rule:evenodd;fill:rgb(100%,100%,100%);fill-opacity:1;stroke-width:0.1;stroke-linecap:butt;stroke-linejoin:miter;stroke:rgb(0%,0%,0%);stroke-opacity:1;stroke-miterlimit:10;" d="M 3.9 2.5 C 3.9 2.720898 3.720898 2.9 3.5 2.9 C 3.279102 2.9 3.1 2.720898 3.1 2.5 C 3.1 2.279102 3.279102 2.1 3.5 2.1 C 3.720898 2.1 3.9 2.279102 3.9 2.5 " transform="matrix(20,0,0,20,-5,-9)"/>
<path style="fill-rule:evenodd;fill:rgb(100%,100%,100%);fill-opacity:1;stroke-width:0.1;stroke-linecap:butt;stroke-linejoin:miter;stroke:rgb(0%,0%,0%);stroke-opacity:1;stroke-miterlimit:10;" d="M 3.9 5.5 C 3.9 5.720898 3.720898 5.9 3.5 5.9 C 3.279102 5.9 3.1 5.720898 3.1 5.5 C 3.1 5.279102 3.279102 5.1 3.5 5.1 C 3.720898 5.1 3.9 5.279102 3.9 5.5 " transform="matrix(20,0,0,20,-5,-9)"/>
<path style="fill-rule:evenodd;fill:rgb(100%,100%,100%);fill-opacity:1;stroke-width:0.1;stroke-linecap:butt;stroke-linejoin:miter;stroke:rgb(0%,0%,0%);stroke-opacity:1;stroke-miterlimit:10;" d="M 6.5 0.9 C 6.5 1.120898 6.320898 1.3 6.1 1.3 C 5.879102 1.3 5.7 1.120898 5.7 0.9 C 5.7 0.679102 5.879102 0.5 6.1 0.5 C 6.320898 0.5 6.5 0.679102 6.5 0.9 " transform="matrix(20,0,0,20,-5,-9)"/>
<path style="fill-rule:evenodd;fill:rgb(100%,100%,100%);fill-opacity:1;stroke-width:0.1;stroke-linecap:butt;stroke-linejoin:miter;stroke:rgb(0%,0%,0%);stroke-opacity:1;stroke-miterlimit:10;" d="M 6.5 3.9 C 6.5 4.120898 6.320898 4.3 6.1 4.3 C 5.879102 4.3 5.7 4.120898 5.7 3.9 C 5.7 3.679102 5.879102 3.5 6.1 3.5 C 6.320898 3.5 6.5 3.679102 6.5 3.9 " transform="matrix(20,0,0,20,-5,-9)"/>
</g>
</svg>
