<?xml version="1.0" encoding="UTF-8"?>
<svg xmlns="http://www.w3.org/2000/svg" xmlns:xlink="http://www.w3.org/1999/xlink" width="125pt" height="114pt" viewBox="0 0 125 114" version="1.1">
<g id="surface1408763">
<rect x="0" y="0" width="125" height="114" style="fill:rgb(100%,100%,100%);fill-opacity:1;stroke:none;"/>
<path style="fill:none;stroke-width:0.1;stroke-linecap:butt;stroke-linejoin:miter;stroke:rgb(49.803922%,49.803922%,49.803922%);stroke-opacity:1;stroke-miterlimit:10;" d="M 1.196875 4.082812 L 3.203125 5.317187 " transform="matrix(20,0,0,20,-9,-5)"/>
<path style="fill:none;stroke-width:0.2;stroke-linecap:butt;stroke-linejoin:miter;stroke:rgb(49.803922%,49.803922%,49.803922%);stroke-opacity:1;stroke-miterlimit:10;" d="M 0.9 1.15 L 0.9 3.65 " transform="matrix(20,0,0,20,-9,-5)"/>
<path style="fill:none;stroke-width:0.1;stroke-linecap:butt;stroke-linejoin:miter;stroke:rgb(100%,0%,0%);stroke-opacity:1;stroke-miterlimit:10;" d="M 5.549609 0.9 L 1.25 0.9 " transform="matrix(20,0,0,20,-9,-5)"/>
<path style="fill:none;stroke-width:0.1;stroke-linecap:butt;stroke-linejoin:miter;stroke:rgb(49.803922%,49.803922%,49.803922%);stroke-opacity:1;stroke-miterlimit:10;" d="M 3.117969 2.264844 L 1.282227 1.135156 " transform="matrix(20,0,0,20,-9,-5)"/>
<path style="fill:none;stroke-width:0.8;stroke-linecap:butt;stroke-linejoin:miter;stroke:rgb(49.803922%,49.803922%,49.803922%);stroke-opacity:1;stroke-miterlimit:10;" d="M 3.279687 2.618555 L 1.120312 3.781445 " transform="matrix(20,0,0,20,-9,-5)"/>
<path style="fill:none;stroke-width:0.4;stroke-linecap:butt;stroke-linejoin:miter;stroke:rgb(100%,0%,0%);stroke-opacity:1;stroke-miterlimit:10;" d="M 5.97207 0.978711 L 3.45625 2.526953 " transform="matrix(20,0,0,20,-9,-5)"/>
<path style="fill:none;stroke-width:0.2;stroke-linecap:butt;stroke-linejoin:miter;stroke:rgb(100%,0%,0%);stroke-opacity:1;stroke-miterlimit:10;" d="M 6.1 3.55 L 6.1 1.447461 " transform="matrix(20,0,0,20,-9,-5)"/>
<path style="fill-rule:evenodd;fill:rgb(100%,100%,100%);fill-opacity:1;stroke-width:0.1;stroke-linecap:butt;stroke-linejoin:miter;stroke:rgb(0%,0%,0%);stroke-opacity:1;stroke-miterlimit:10;" d="M 1.3 0.9 C 1.3 1.120898 1.120898 1.3 0.9 1.3 C 0.679102 1.3 0.5 1.120898 0.5 0.9 C 0.5 0.679102 0.679102 0.5 0.9 0.5 C 1.120898 0.5 1.3 0.679102 1.3 0.9 " transform="matrix(20,0,0,20,-9,-5)"/>
<path style="fill-rule:evenodd;fill:rgb(100%,100%,100%);fill-opacity:1;stroke-width:0.1;stroke-linecap:butt;stroke-linejoin:miter;stroke:rgb(0%,0%,0%);stroke-opacity:1;stroke-miterlimit:10;" d="M 1.3 3.9 C 1.3 4.120898 1.120898 4.3 0.9 4.3 C 0.679102 4.3 0.5 4.120898 0.5 3.9 C 0.5 3.679102 0.679102 3.5 0.9 3.5 C 1.120898 3.5 1.3 3.679102 1.3 3.9 " transform="matrix(20,0,0,20,-9,-5)"/>
<path style="fill-rule:evenodd;fill:rgb(100%,100%,100%);fill-opacity:1;stroke-width:0.1;stroke-linecap:butt;stroke-linejoin:miter;stroke:rgb(0%,0%,0%);stroke-opacity:1;stroke-miterlimit:10;" d="M 3.9 2.5 C 3.9 2.720898 3.720898 2.9 3.5 2.9 C 3.279102 2.9 3.1 2.720898 3.1 2.5 C 3.1 2.279102 3.279102 2.1 3.5 2.1 C 3.720898 2.1 3.9 2.279102 3.9 2.5 " transform="matrix(20,0,0,20,-9,-5)"/>
<path style="fill-rule:evenodd;fill:rgb(100%,100%,100%);fill-opacity:1;stroke-width:0.1;stroke-linecap:butt;stroke-linejoin:miter;stroke:rgb(0%,0%,0%);stroke-opacity:1;stroke-miterlimit:10;" d="M 3.9 5.5 C 3.9 5.720898 3.720898 5.9 3.5 5.9 C 3.279102 5.9 3.1 5.720898 3.1 5.5 C 3.1 5.279102 3.279102 5.1 3.5 5.1 C 3.720898 5.1 3.9 5.279102 3.9 5.5 " transform="matrix(20,0,0,20,-9,-5)"/>
<path style="fill-rule:evenodd;fill:rgb(49.803922%,49.803922%,49.803922%);fill-opacity:1;stroke-width:0.1;stroke-linecap:butt;stroke-linejoin:miter;stroke:rgb(0%,0%,0%);stroke-opacity:1;stroke-miterlimit:10;" d="M 6.7 0.9 C 6.7 1.231445 6.431445 1.5 6.1 1.5 C 5.768555 1.5 5.5 1.231445 5.5 0.9 C 5.5 0.568555 5.768555 0.3 6.1 0.3 C 6.431445 0.3 6.7 0.568555 6.7 0.9 " transform="matrix(20,0,0,20,-9,-5)"/>
<path style="fill-rule:evenodd;fill:rgb(100%,100%,100%);fill-opacity:1;stroke-width:0.1;stroke-linecap:butt;stroke-linejoin:miter;stroke:rgb(0%,0%,0%);stroke-opacity:1;stroke-miterlimit:10;" d="M 6.5 3.9 C 6.5 4.120898 6.320898 4.3 6.1 4.3 C 5.879102 4.3 5.7 4.120898 5.7 3.9 C 5.7 3.679102 5.879102 3.5 6.1 3.5 C 6.320898 3.5 6.5 3.679102 6.5 3.9 " transform="matrix(20,0,0,20,-9,-5)"/>
</g>
</svg>
